<svg xmlns="http://www.w3.org/2000/svg" xmlns:xlink="http://www.w3.org/1999/xlink">
  <defs>
    <svg id="setting" xmlns="http://www.w3.org/2000/svg" width="24" height="24" viewBox="0 0 24 24">
      <path fill="currentColor"
        d="M19.9 12.66a1 1 0 0 1 0-1.32l1.28-1.44a1 1 0 0 0 .12-1.17l-2-3.46a1 1 0 0 0-1.07-.48l-1.88.38a1 1 0 0 1-1.15-.66l-.61-1.83a1 1 0 0 0-.95-.68h-4a1 1 0 0 0-1 .68l-.56 1.83a1 1 0 0 1-1.15.66L5 4.79a1 1 0 0 0-1 .48L2 8.73a1 1 0 0 0 .1 1.17l1.27 1.44a1 1 0 0 1 0 1.32L2.1 14.1a1 1 0 0 0-.1 1.17l2 3.46a1 1 0 0 0 1.07.48l1.88-.38a1 1 0 0 1 1.15.66l.61 1.83a1 1 0 0 0 1 .68h4a1 1 0 0 0 .95-.68l.61-1.83a1 1 0 0 1 1.15-.66l1.88.38a1 1 0 0 0 1.07-.48l2-3.46a1 1 0 0 0-.12-1.17ZM18.41 14l.8.9l-1.28 2.22l-1.18-.24a3 3 0 0 0-3.45 2L12.92 20h-2.56L10 18.86a3 3 0 0 0-3.45-2l-1.18.24l-1.3-2.21l.8-.9a3 3 0 0 0 0-4l-.8-.9l1.28-2.2l1.18.24a3 3 0 0 0 3.45-2L10.36 4h2.56l.38 1.14a3 3 0 0 0 3.45 2l1.18-.24l1.28 2.22l-.8.9a3 3 0 0 0 0 3.98Zm-6.77-6a4 4 0 1 0 4 4a4 4 0 0 0-4-4Zm0 6a2 2 0 1 1 2-2a2 2 0 0 1-2 2Z" />
    </svg>
    <svg id="graph-bar" xmlns="http://www.w3.org/2000/svg" width="24" height="24" viewBox="0 0 24 24">
      <path fill="currentColor"
        d="M6 13H2a1 1 0 0 0-1 1v8a1 1 0 0 0 1 1h4a1 1 0 0 0 1-1v-8a1 1 0 0 0-1-1Zm-1 8H3v-6h2ZM22 9h-4a1 1 0 0 0-1 1v12a1 1 0 0 0 1 1h4a1 1 0 0 0 1-1V10a1 1 0 0 0-1-1Zm-1 12h-2V11h2ZM14 1h-4a1 1 0 0 0-1 1v20a1 1 0 0 0 1 1h4a1 1 0 0 0 1-1V2a1 1 0 0 0-1-1Zm-1 20h-2V3h2Z" />
    </svg>
    <svg id="action" xmlns="http://www.w3.org/2000/svg" width="20" height="20" viewBox="0 0 20 20">
      <g clip-path="url(#clip0_1086_555)">
        <path stroke="currentColor" fill="none"
          d="M0.833374 19.1668L3.33337 16.6668M3.33337 16.6668C6.66671 20.0727 9.16671 18.3335 10.8334 16.6668L11.6667 15.8335L4.16671 8.3335L3.33337 9.16683C1.66671 10.8335 4.07696e-05 13.261 3.33337 16.6668ZM16.6667 3.3335L19.1667 0.833496M16.6667 3.3335C20.0442 6.66683 18.3334 9.16683 16.6667 10.8335L15.8334 11.6668L8.33337 4.16683L9.16671 3.3335C10.8334 1.66683 13.2892 0.00016284 16.6667 3.3335ZM7.50004 9.16683L10 6.66683M10.8334 12.5002L13.3334 10.0002"
          stroke-width="2" />
      </g>
      <defs>
        <clipPath id="clip0_1086_555">
          <rect width="20" height="20" fill="none" />
        </clipPath>
      </defs>
    </svg>
    <svg id="shield-person" xmlns="http://www.w3.org/2000/svg" width="20" height="20" viewBox="0 0 20 20">
      <path fill="currentColor"
        d="M10 10.8332C9.1806 10.8332 8.48949 10.5521 7.92671 9.98984C7.36393 9.42762 7.08282 8.7365 7.08337 7.9165C7.08337 7.09706 7.36449 6.40595 7.92671 5.84317C8.48893 5.28039 9.18004 4.99928 10 4.99984C10.8195 4.99984 11.5106 5.28095 12.0734 5.84317C12.6362 6.40539 12.9173 7.0965 12.9167 7.9165C12.9167 8.73595 12.6356 9.42706 12.0734 9.98984C11.5112 10.5526 10.82 10.8337 10 10.8332ZM10 9.1665C10.3612 9.1665 10.6598 9.04845 10.8959 8.81234C11.132 8.57623 11.25 8.27762 11.25 7.9165C11.25 7.55539 11.132 7.25678 10.8959 7.02067C10.6598 6.78456 10.3612 6.6665 10 6.6665C9.63893 6.6665 9.34032 6.78456 9.10421 7.02067C8.8681 7.25678 8.75004 7.55539 8.75004 7.9165C8.75004 8.27762 8.8681 8.57623 9.10421 8.81234C9.34032 9.04845 9.63893 9.1665 10 9.1665ZM10 18.3332C8.06949 17.8471 6.4756 16.7393 5.21837 15.0098C3.96115 13.2804 3.33282 11.3604 3.33337 9.24984V4.1665L10 1.6665L16.6667 4.1665V9.24984C16.6667 11.3609 16.0381 13.2812 14.7809 15.0107C13.5237 16.7401 11.93 17.8476 10 18.3332ZM10 3.43734L5.00004 5.31234V9.24984C5.00004 9.99984 5.10421 10.729 5.31254 11.4373C5.52087 12.1457 5.8056 12.8123 6.16671 13.4373C6.75004 13.1457 7.36115 12.9165 8.00004 12.7498C8.63893 12.5832 9.3056 12.4998 10 12.4998C10.6945 12.4998 11.3612 12.5832 12 12.7498C12.6389 12.9165 13.25 13.1457 13.8334 13.4373C14.1945 12.8123 14.4792 12.1457 14.6875 11.4373C14.8959 10.729 15 9.99984 15 9.24984V5.31234L10 3.43734ZM10 14.1665C9.50004 14.1665 9.01393 14.2221 8.54171 14.3332C8.06949 14.4443 7.6181 14.5971 7.18754 14.7915C7.59032 15.2082 8.02782 15.5693 8.50004 15.8748C8.97226 16.1804 9.47226 16.4165 10 16.5832C10.5278 16.4165 11.0278 16.1804 11.5 15.8748C11.9723 15.5693 12.4098 15.2082 12.8125 14.7915C12.382 14.5971 11.9306 14.4443 11.4584 14.3332C10.9862 14.2221 10.5 14.1665 10 14.1665Z" />
    </svg>
    <svg id="shake-hands-line" xmlns="http://www.w3.org/2000/svg" width="20" height="20" viewBox="0 0 20 20">
      <path fill="currentColor"
        d="M9.88413 1.99186C10.2874 1.72316 10.76 1.57743 11.2445 1.5724C11.729 1.56737 12.2046 1.70326 12.6133 1.96353L16.075 4.16686H17.5C17.721 4.16686 17.9329 4.25466 18.0892 4.41094C18.2455 4.56722 18.3333 4.77918 18.3333 5.00019V12.5002C18.3333 12.7212 18.2455 12.9332 18.0892 13.0894C17.9329 13.2457 17.721 13.3335 17.5 13.3335H16.2333C16.26 13.7393 16.1742 14.1446 15.9852 14.5047C15.7963 14.8648 15.5116 15.1658 15.1625 15.3744L10.9183 17.921C10.6575 18.0774 10.3589 18.1594 10.0549 18.1582C9.7508 18.157 9.45286 18.0727 9.19329 17.9144C8.90093 18.1727 8.52721 18.3203 8.13723 18.3314C7.74725 18.3425 7.36573 18.2164 7.05913 17.9752L2.77579 14.6094C2.47651 14.3743 2.26661 14.044 2.18097 13.6732C2.09532 13.3024 2.13907 12.9135 2.30496 12.571C2.10597 12.415 1.94508 12.2158 1.83449 11.9884C1.72389 11.761 1.66649 11.5114 1.66663 11.2585V5.00019C1.66663 4.77918 1.75442 4.56722 1.9107 4.41094C2.06698 4.25466 2.27895 4.16686 2.49996 4.16686H6.62246L9.88413 1.99186ZM3.47746 11.3719L4.05413 10.8677C4.54694 10.4366 5.18922 10.2161 5.84291 10.2535C6.49659 10.2909 7.10952 10.5832 7.54996 11.0677L9.80163 13.5444C10.1547 13.9328 10.3766 14.4224 10.4359 14.944C10.4951 15.4655 10.3886 15.9925 10.1316 16.4502L14.305 13.946C14.4143 13.8805 14.4973 13.7789 14.5398 13.6587C14.5822 13.5386 14.5814 13.4073 14.5375 13.2877L10.8483 8.12269C10.7473 7.98114 10.6045 7.87473 10.44 7.8184C10.2754 7.76206 10.0974 7.75861 9.93079 7.80853L7.85913 8.42936C7.4268 8.55903 6.96743 8.56924 6.52977 8.45891C6.09211 8.34858 5.69248 8.12182 5.37329 7.80269L5.12913 7.55936C4.90742 7.3381 4.75265 7.05876 4.68263 6.75346C4.61261 6.44815 4.63017 6.12929 4.73329 5.83353H3.33329V11.2585L3.47746 11.3719ZM11.7191 3.37019C11.5827 3.28329 11.424 3.23796 11.2622 3.23973C11.1005 3.24151 10.9428 3.29031 10.8083 3.38019L6.30829 6.38019L6.55163 6.62436C6.65813 6.73074 6.79146 6.80628 6.93746 6.84296C7.08345 6.87964 7.23665 6.87609 7.38079 6.83269L9.45163 6.21186C9.95132 6.06202 10.4854 6.07224 10.9789 6.24111C11.4725 6.40997 11.9009 6.72901 12.2041 7.15353L15.4291 11.6669H16.6666V5.83353H16.0758C15.7587 5.83348 15.4482 5.743 15.1808 5.57269L11.7183 3.36936L11.7191 3.37019ZM5.15079 12.121L3.80413 13.2994L8.08746 16.6652L8.67496 15.6385C8.76225 15.4856 8.79887 15.309 8.77956 15.134C8.76025 14.959 8.686 14.7946 8.56746 14.6644L6.31663 12.1877C6.16982 12.0263 5.96557 11.9289 5.74774 11.9164C5.52991 11.904 5.31505 11.9774 5.15079 12.121Z" />
    </svg>
    <svg id="buildings-bold" xmlns="http://www.w3.org/2000/svg" width="20" height="20" viewBox="0 0 20 20">
      <path fill="currentColor"
        d="M18.75 15.9374H17.8125V7.49992C17.8125 7.08552 17.6479 6.68809 17.3549 6.39507C17.0618 6.10204 16.6644 5.93742 16.25 5.93742H13.4375V2.49992C13.4374 2.23726 13.3711 1.97887 13.2447 1.74862C13.1183 1.51837 12.9359 1.32369 12.7144 1.18259C12.4928 1.04149 12.2393 0.958515 11.9772 0.941335C11.7151 0.924154 11.4529 0.973323 11.2148 1.0843L3.08984 4.87648C2.82055 5.00264 2.59271 5.20281 2.43293 5.45362C2.27315 5.70442 2.18803 5.99551 2.1875 6.29289V15.9374H1.25C1.00136 15.9374 0.762903 16.0362 0.587087 16.212C0.411272 16.3878 0.3125 16.6263 0.3125 16.8749C0.3125 17.1236 0.411272 17.362 0.587087 17.5378C0.762903 17.7136 1.00136 17.8124 1.25 17.8124H18.75C18.9986 17.8124 19.2371 17.7136 19.4129 17.5378C19.5887 17.362 19.6875 17.1236 19.6875 16.8749C19.6875 16.6263 19.5887 16.3878 19.4129 16.212C19.2371 16.0362 18.9986 15.9374 18.75 15.9374ZM15.9375 7.81242V15.9374H13.4375V7.81242H15.9375ZM4.0625 6.49133L11.5625 2.99211V15.9374H4.0625V6.49133ZM10.3125 8.74992V9.68742C10.3125 9.93606 10.2137 10.1745 10.0379 10.3503C9.8621 10.5261 9.62364 10.6249 9.375 10.6249C9.12636 10.6249 8.8879 10.5261 8.71209 10.3503C8.53627 10.1745 8.4375 9.93606 8.4375 9.68742V8.74992C8.4375 8.50128 8.53627 8.26282 8.71209 8.08701C8.8879 7.91119 9.12636 7.81242 9.375 7.81242C9.62364 7.81242 9.8621 7.91119 10.0379 8.08701C10.2137 8.26282 10.3125 8.50128 10.3125 8.74992ZM7.1875 8.74992V9.68742C7.1875 9.93606 7.08873 10.1745 6.91291 10.3503C6.7371 10.5261 6.49864 10.6249 6.25 10.6249C6.00136 10.6249 5.7629 10.5261 5.58709 10.3503C5.41127 10.1745 5.3125 9.93606 5.3125 9.68742V8.74992C5.3125 8.50128 5.41127 8.26282 5.58709 8.08701C5.7629 7.91119 6.00136 7.81242 6.25 7.81242C6.49864 7.81242 6.7371 7.91119 6.91291 8.08701C7.08873 8.26282 7.1875 8.50128 7.1875 8.74992ZM7.1875 12.8124V13.7499C7.1875 13.9986 7.08873 14.237 6.91291 14.4128C6.7371 14.5886 6.49864 14.6874 6.25 14.6874C6.00136 14.6874 5.7629 14.5886 5.58709 14.4128C5.41127 14.237 5.3125 13.9986 5.3125 13.7499V12.8124C5.3125 12.5638 5.41127 12.3253 5.58709 12.1495C5.7629 11.9737 6.00136 11.8749 6.25 11.8749C6.49864 11.8749 6.7371 11.9737 6.91291 12.1495C7.08873 12.3253 7.1875 12.5638 7.1875 12.8124ZM10.3125 12.8124V13.7499C10.3125 13.9986 10.2137 14.237 10.0379 14.4128C9.8621 14.5886 9.62364 14.6874 9.375 14.6874C9.12636 14.6874 8.8879 14.5886 8.71209 14.4128C8.53627 14.237 8.4375 13.9986 8.4375 13.7499V12.8124C8.4375 12.5638 8.53627 12.3253 8.71209 12.1495C8.8879 11.9737 9.12636 11.8749 9.375 11.8749C9.62364 11.8749 9.8621 11.9737 10.0379 12.1495C10.2137 12.3253 10.3125 12.5638 10.3125 12.8124Z" />
    </svg>
    <svg id="menu-round" xmlns="http://www.w3.org/2000/svg" width="20" height="20" viewBox="0 0 20 20" fill="none">
      <path fill="currentColor"
        d="M6.66659 5.81885C6.44557 5.81885 6.23361 5.90665 6.07733 6.06293C5.92105 6.21921 5.83325 6.43117 5.83325 6.65218C5.83325 6.87319 5.92105 7.08516 6.07733 7.24144C6.23361 7.39772 6.44557 7.48551 6.66659 7.48551H13.3333C13.5543 7.48551 13.7662 7.39772 13.9225 7.24144C14.0788 7.08516 14.1666 6.87319 14.1666 6.65218C14.1666 6.43117 14.0788 6.21921 13.9225 6.06293C13.7662 5.90665 13.5543 5.81885 13.3333 5.81885H6.66659ZM5.83325 9.99968C5.83325 9.77867 5.92105 9.56671 6.07733 9.41043C6.23361 9.25415 6.44557 9.16635 6.66659 9.16635H13.3333C13.5543 9.16635 13.7662 9.25415 13.9225 9.41043C14.0788 9.56671 14.1666 9.77867 14.1666 9.99968C14.1666 10.2207 14.0788 10.4327 13.9225 10.5889C13.7662 10.7452 13.5543 10.833 13.3333 10.833H6.66659C6.44557 10.833 6.23361 10.7452 6.07733 10.5889C5.92105 10.4327 5.83325 10.2207 5.83325 9.99968ZM6.66659 12.5138C6.44557 12.5138 6.23361 12.6016 6.07733 12.7579C5.92105 12.9142 5.83325 13.1262 5.83325 13.3472C5.83325 13.5682 5.92105 13.7802 6.07733 13.9364C6.23361 14.0927 6.44557 14.1805 6.66659 14.1805H13.3333C13.5543 14.1805 13.7662 14.0927 13.9225 13.9364C14.0788 13.7802 14.1666 13.5682 14.1666 13.3472C14.1666 13.1262 14.0788 12.9142 13.9225 12.7579C13.7662 12.6016 13.5543 12.5138 13.3333 12.5138H6.66659Z" />
      <path fill="currentColor" fill-rule="evenodd" clip-rule="evenodd"
        d="M18.3333 9.99984C18.3333 14.6023 14.6025 18.3332 9.99996 18.3332C5.39746 18.3332 1.66663 14.6023 1.66663 9.99984C1.66663 5.39734 5.39746 1.6665 9.99996 1.6665C14.6025 1.6665 18.3333 5.39734 18.3333 9.99984ZM16.6666 9.99984C16.6666 11.7679 15.9642 13.4636 14.714 14.7139C13.4638 15.9641 11.7681 16.6665 9.99996 16.6665C8.23185 16.6665 6.53616 15.9641 5.28591 14.7139C4.03567 13.4636 3.33329 11.7679 3.33329 9.99984C3.33329 8.23173 4.03567 6.53604 5.28591 5.28579C6.53616 4.03555 8.23185 3.33317 9.99996 3.33317C11.7681 3.33317 13.4638 4.03555 14.714 5.28579C15.9642 6.53604 16.6666 8.23173 16.6666 9.99984Z" />
    </svg>
    <svg id="pig-money" xmlns="http://www.w3.org/2000/svg" width="20" height="20" viewBox="0 0 20 20" fill="none">
      <path stroke="currentColor"
        d="M12.5001 9.1667V9.17504M4.31089 6.9817C3.94539 6.70079 3.66468 6.32429 3.49978 5.89381C3.33488 5.46333 3.29221 4.99564 3.37649 4.54243C3.46077 4.08922 3.66872 3.66814 3.97735 3.32572C4.28599 2.98331 4.68329 2.73289 5.12534 2.60216C5.56739 2.47142 6.03699 2.46546 6.48222 2.58492C6.92745 2.70438 7.33099 2.94462 7.64822 3.27908C7.96545 3.61354 8.18403 4.02921 8.2798 4.48013C8.37557 4.93105 8.3448 5.39967 8.19089 5.8342"
        stroke-width="2" stroke-linecap="round" stroke-linejoin="round" />
      <path stroke="currentColor"
        d="M13.3334 3.3335V6.50266C14.3647 7.09943 15.1499 8.04387 15.5484 9.16683H16.6659C16.8869 9.16683 17.0989 9.25463 17.2551 9.41091C17.4114 9.56719 17.4992 9.77915 17.4992 10.0002V11.6668C17.4992 11.8878 17.4114 12.0998 17.2551 12.2561C17.0989 12.4124 16.8869 12.5002 16.6659 12.5002H15.5476C15.2676 13.2918 14.7917 14.0002 14.1659 14.561V16.2502C14.1659 16.5817 14.0342 16.8996 13.7998 17.134C13.5653 17.3685 13.2474 17.5002 12.9159 17.5002C12.5844 17.5002 12.2664 17.3685 12.032 17.134C11.7976 16.8996 11.6659 16.5817 11.6659 16.2502V15.7643C11.3905 15.8105 11.1118 15.8336 10.8326 15.8335H7.49922C7.22 15.8336 6.94126 15.8105 6.66589 15.7643V16.2502C6.66589 16.5817 6.53419 16.8996 6.29977 17.134C6.06535 17.3685 5.74741 17.5002 5.41589 17.5002C5.08437 17.5002 4.76642 17.3685 4.532 17.134C4.29758 16.8996 4.16589 16.5817 4.16589 16.2502V14.561C3.41085 13.886 2.87862 12.9976 2.63962 12.0134C2.40063 11.0292 2.46615 9.99564 2.8275 9.04951C3.18886 8.10339 3.82902 7.2893 4.66325 6.71502C5.49748 6.14074 6.48643 5.83333 7.49922 5.8335H9.58255L13.3326 3.3335H13.3334Z"
        stroke-width="2" stroke-linecap="round" stroke-linejoin="round" />
    </svg>
    <svg id="profile" xmlns="http://www.w3.org/2000/svg" width="20" height="20" viewBox="0 0 20 20" fill="none">
      <path fill="currentColor"
        d="M16.875 0H1.875C0.84375 0 0 0.84375 0 1.875V18.125C0 19.1562 0.84375 20 1.875 20H16.875C17.9062 20 18.75 19.1562 18.75 18.125V1.875C18.75 0.84375 17.9062 0 16.875 0ZM16.25 17.5H2.5V2.5H16.25V17.5ZM5 11.25H13.75V12.5H5V11.25ZM5 13.75H13.75V15H5V13.75ZM6.25 5.625C6.25008 5.37869 6.29868 5.13481 6.39301 4.90728C6.48735 4.67975 6.62557 4.47303 6.7998 4.29892C6.97403 4.12481 7.18084 3.98672 7.40843 3.89253C7.63602 3.79835 7.87994 3.74992 8.12625 3.75C8.37256 3.75008 8.61644 3.79868 8.84397 3.89301C9.0715 3.98735 9.27822 4.12557 9.45233 4.2998C9.62644 4.47403 9.76453 4.68084 9.85872 4.90843C9.9529 5.13602 10.0013 5.37994 10.0013 5.62625C10.0011 6.1237 9.80332 6.6007 9.45145 6.95233C9.09958 7.30396 8.62245 7.50142 8.125 7.50125C7.62755 7.50108 7.15055 7.30332 6.79892 6.95145C6.44729 6.59959 6.24983 6.12245 6.25 5.625ZM9.375 7.5H6.875C5.84375 7.5 5 8.0625 5 8.75V10H11.25V8.75C11.25 8.0625 10.4062 7.5 9.375 7.5Z" />
    </svg>
    <svg id="moon" xmlns="http://www.w3.org/2000/svg" width="17" height="17" viewBox="0 0 17 17" fill="none">
      <path
        d="M15.6414 9.97483C15.2123 11.3753 14.3526 12.6048 13.1843 13.4884C12.1587 14.2603 10.9381 14.7311 9.65977 14.848C8.3814 14.9648 7.09576 14.723 5.94717 14.1497C4.79857 13.5765 3.83249 12.6944 3.15734 11.6026C2.4822 10.5108 2.12472 9.2524 2.12503 7.9687C2.12042 6.47035 2.60751 5.01186 3.5116 3.81698C4.39516 2.64876 5.62466 1.78896 7.02515 1.35995C7.11745 1.33153 7.21576 1.32881 7.30949 1.35208C7.40323 1.37535 7.48884 1.42373 7.55714 1.49203C7.62543 1.56032 7.67381 1.64594 7.69708 1.73967C7.72036 1.8334 7.71763 1.93171 7.68921 2.02401C7.38297 3.03699 7.3573 4.11408 7.61492 5.1405C7.87254 6.16692 8.40381 7.10422 9.15211 7.85252C9.90041 8.60083 10.8377 9.13209 11.8641 9.38971C12.8906 9.64733 13.9676 9.62166 14.9806 9.31542C15.0729 9.287 15.1712 9.28428 15.265 9.30755C15.3587 9.33082 15.4443 9.3792 15.5126 9.44749C15.5809 9.51579 15.6293 9.6014 15.6526 9.69514C15.6758 9.78887 15.6731 9.88718 15.6447 9.97948L15.6414 9.97483Z"
        fill="currentColor" />
    </svg>
    <svg id="sun" xmlns="http://www.w3.org/2000/svg" width="19" height="19" viewBox="0 0 19 19" fill="none">
      <g clip-path="url(#clip0_1648_725)">
        <path
          d="M9.49977 15.0418C9.70974 15.0418 9.9111 15.1252 10.0596 15.2737C10.208 15.4222 10.2914 15.6235 10.2914 15.8335V16.6252C10.2914 16.8351 10.208 17.0365 10.0596 17.185C9.9111 17.3334 9.70974 17.4168 9.49977 17.4168C9.28981 17.4168 9.08845 17.3334 8.93998 17.185C8.79151 17.0365 8.70811 16.8351 8.70811 16.6252V15.8335C8.70811 15.6235 8.79151 15.4222 8.93998 15.2737C9.08845 15.1252 9.28981 15.0418 9.49977 15.0418ZM14.5379 13.4189L15.0976 13.9786C15.2419 14.1279 15.3217 14.3279 15.3198 14.5355C15.318 14.7431 15.2348 14.9416 15.088 15.0884C14.9412 15.2352 14.7427 15.3184 14.5351 15.3202C14.3275 15.322 14.1275 15.2422 13.9782 15.098L13.4185 14.5383C13.2743 14.389 13.1945 14.189 13.1963 13.9815C13.1981 13.7739 13.2814 13.5753 13.4282 13.4286C13.5749 13.2818 13.7735 13.1985 13.9811 13.1967C14.1887 13.1949 14.3886 13.2747 14.5379 13.4189ZM4.46161 13.4189C4.60407 13.2769 4.79524 13.1945 4.99629 13.1884C5.19733 13.1822 5.39317 13.2528 5.54404 13.3859C5.6949 13.5189 5.78947 13.7044 5.80855 13.9046C5.82762 14.1048 5.76977 14.3048 5.64673 14.4639L5.58102 14.5383L5.02132 15.098C4.87885 15.24 4.68768 15.3225 4.48664 15.3286C4.28559 15.3347 4.08975 15.2641 3.93889 15.1311C3.78802 14.9981 3.69345 14.8126 3.67437 14.6124C3.6553 14.4121 3.71316 14.2122 3.83619 14.053L3.9019 13.9786L4.46161 13.4189ZM9.49977 4.75016C10.7596 4.75016 11.9677 5.25061 12.8585 6.14141C13.7493 7.0322 14.2498 8.24039 14.2498 9.50016C14.2498 10.7599 13.7493 11.9681 12.8585 12.8589C11.9677 13.7497 10.7596 14.2502 9.49977 14.2502C8.24 14.2502 7.03182 13.7497 6.14102 12.8589C5.25022 11.9681 4.74977 10.7599 4.74977 9.50016C4.74977 8.24039 5.25022 7.0322 6.14102 6.14141C7.03182 5.25061 8.24 4.75016 9.49977 4.75016ZM3.16644 8.7085C3.36822 8.70872 3.5623 8.78598 3.70902 8.9245C3.85575 9.06302 3.94404 9.25233 3.95587 9.45377C3.96769 9.6552 3.90216 9.85355 3.77265 10.0083C3.64314 10.163 3.45943 10.2625 3.25907 10.2863L3.16644 10.2918H2.37477C2.17299 10.2916 1.97892 10.2143 1.83219 10.0758C1.68547 9.93731 1.59717 9.74799 1.58535 9.54656C1.57352 9.34513 1.63906 9.14678 1.76857 8.99205C1.89808 8.83731 2.08178 8.73787 2.28215 8.71404L2.37477 8.7085H3.16644ZM16.6248 8.7085C16.8347 8.7085 17.0361 8.7919 17.1846 8.94037C17.333 9.08884 17.4164 9.2902 17.4164 9.50016C17.4164 9.71013 17.333 9.91149 17.1846 10.06C17.0361 10.2084 16.8347 10.2918 16.6248 10.2918H15.8331C15.6231 10.2918 15.4218 10.2084 15.2733 10.06C15.1248 9.91149 15.0414 9.71013 15.0414 9.50016C15.0414 9.2902 15.1248 9.08884 15.2733 8.94037C15.4218 8.7919 15.6231 8.7085 15.8331 8.7085H16.6248ZM3.9019 3.90229C4.03822 3.76598 4.21959 3.6841 4.41198 3.672C4.60438 3.6599 4.79458 3.71842 4.9469 3.83658L5.02132 3.90229L5.58102 4.462C5.72301 4.60446 5.80544 4.79563 5.81158 4.99668C5.81772 5.19772 5.7471 5.39356 5.61408 5.54443C5.48105 5.69529 5.29559 5.78986 5.09536 5.80894C4.89513 5.82801 4.69514 5.77016 4.53602 5.64712L4.46161 5.58141L3.9019 5.0217C3.75348 4.87325 3.67011 4.67192 3.67011 4.462C3.67011 4.25207 3.75348 4.05075 3.9019 3.90229ZM15.0976 3.90229C15.2461 4.05075 15.3294 4.25207 15.3294 4.462C15.3294 4.67192 15.2461 4.87325 15.0976 5.0217L14.5379 5.58141C14.4649 5.65703 14.3776 5.71734 14.281 5.75883C14.1844 5.80032 14.0805 5.82216 13.9754 5.82307C13.8703 5.82398 13.766 5.80395 13.6687 5.76415C13.5714 5.72434 13.483 5.66556 13.4087 5.59123C13.3344 5.51689 13.2756 5.4285 13.2358 5.33121C13.196 5.23392 13.176 5.12967 13.1769 5.02455C13.1778 4.91944 13.1996 4.81555 13.2411 4.71897C13.2826 4.62238 13.3429 4.53503 13.4185 4.462L13.9782 3.90229C14.1267 3.75387 14.328 3.6705 14.5379 3.6705C14.7479 3.6705 14.9492 3.75387 15.0976 3.90229ZM9.49977 1.5835C9.70974 1.5835 9.9111 1.6669 10.0596 1.81537C10.208 1.96384 10.2914 2.1652 10.2914 2.37516V3.16683C10.2914 3.37679 10.208 3.57816 10.0596 3.72662C9.9111 3.87509 9.70974 3.9585 9.49977 3.9585C9.28981 3.9585 9.08845 3.87509 8.93998 3.72662C8.79151 3.57816 8.70811 3.37679 8.70811 3.16683V2.37516C8.70811 2.1652 8.79151 1.96384 8.93998 1.81537C9.08845 1.6669 9.28981 1.5835 9.49977 1.5835Z"
          fill="currentColor" />
      </g>
      <defs>
        <clipPath id="clip0_1648_725">
          <rect width="19" height="19" fill="currentColor" />
        </clipPath>
      </defs>
    </svg>
    <svg id="edit-sharp" xmlns="http://www.w3.org/2000/svg" width="20" height="20" viewBox="0 0 20 20" fill="none">
      <path d="M16.0833 7.43742L12.5417 3.93742L14.8958 1.58325L18.4167 5.10409L16.0833 7.43742ZM2.5 17.4999V13.9583L11.3333 5.12492L14.875 8.66658L6.04167 17.4999H2.5Z" fill="currentColor" />
    </svg>
    <svg id="notification" xmlns="http://www.w3.org/2000/svg" width="20" height="20" viewBox="0 0 20 20" fill="none">
      <path
        d="M5.00065 15.8333V8.33325C5.00065 7.00717 5.52744 5.7354 6.46512 4.79772C7.4028 3.86004 8.67457 3.33325 10.0007 3.33325C11.3267 3.33325 12.5985 3.86004 13.5362 4.79772C14.4739 5.7354 15.0007 7.00717 15.0007 8.33325V15.8333M5.00065 15.8333H15.0007M5.00065 15.8333H3.33398M15.0007 15.8333H16.6673M9.16732 18.3333H10.834"
        stroke="currentColor" stroke-width="2" stroke-linecap="round" stroke-linejoin="round" />
    </svg>
    <svg id="secure-outline" xmlns="http://www.w3.org/2000/svg" width="20" height="20" viewBox="0 0 20 20" fill="none">
      <path
        d="M10.0007 14.1666C9.55862 14.1666 9.1347 13.991 8.82214 13.6784C8.50958 13.3659 8.33398 12.9419 8.33398 12.4999C8.33398 11.5749 9.07565 10.8333 10.0007 10.8333C10.4427 10.8333 10.8666 11.0088 11.1792 11.3214C11.4917 11.634 11.6673 12.0579 11.6673 12.4999C11.6673 12.9419 11.4917 13.3659 11.1792 13.6784C10.8666 13.991 10.4427 14.1666 10.0007 14.1666ZM15.0007 16.6666V8.33325H5.00065V16.6666H15.0007ZM15.0007 6.66658C15.4427 6.66658 15.8666 6.84218 16.1792 7.15474C16.4917 7.4673 16.6673 7.89122 16.6673 8.33325V16.6666C16.6673 17.1086 16.4917 17.5325 16.1792 17.8451C15.8666 18.1577 15.4427 18.3333 15.0007 18.3333H5.00065C4.55862 18.3333 4.1347 18.1577 3.82214 17.8451C3.50958 17.5325 3.33398 17.1086 3.33398 16.6666V8.33325C3.33398 7.40825 4.07565 6.66658 5.00065 6.66658H5.83398V4.99992C5.83398 3.89485 6.27297 2.83504 7.05437 2.05364C7.83577 1.27224 8.89558 0.833252 10.0007 0.833252C10.5478 0.833252 11.0896 0.941026 11.5952 1.15042C12.1007 1.35982 12.56 1.66673 12.9469 2.05364C13.3338 2.44055 13.6408 2.89988 13.8501 3.4054C14.0595 3.91093 14.1673 4.45274 14.1673 4.99992V6.66658H15.0007ZM10.0007 2.49992C9.33761 2.49992 8.70172 2.76331 8.23288 3.23215C7.76404 3.70099 7.50065 4.33688 7.50065 4.99992V6.66658H12.5007V4.99992C12.5007 4.33688 12.2373 3.70099 11.7684 3.23215C11.2996 2.76331 10.6637 2.49992 10.0007 2.49992Z"
        fill="currentColor" />
    </svg>
    <svg id="appearance" xmlns="http://www.w3.org/2000/svg" width="20" height="20" viewBox="0 0 20 20" fill="none">
      <g clip-path="url(#clip0_1921_657)">
        <path fill-rule="evenodd" clip-rule="evenodd"
          d="M18.1118 10.4849L18.1106 10.4924C18.1014 10.5059 18.09 10.5177 18.0768 10.5274C17.9812 10.5971 17.8651 10.6332 17.7468 10.6299H13.7643C9.86683 10.6299 7.91432 15.3424 10.6693 18.0974C9.01875 18.2338 7.36591 17.8626 5.93223 17.0334C4.49855 16.2042 3.3525 14.9567 2.64763 13.458C1.94276 11.9593 1.71273 10.2809 1.98837 8.64783C2.264 7.01473 3.03212 5.50486 4.18983 4.32051C5.34754 3.13615 6.83955 2.33388 8.46596 2.02117C10.0924 1.70846 11.7755 1.90025 13.2899 2.57084C14.8042 3.24143 16.0775 4.3588 16.9391 5.77325C17.8007 7.1877 18.2094 8.83167 18.1106 10.4849H18.1118ZM17.7468 12.5049C18.8881 12.5049 19.9168 11.7324 19.9843 10.5937C20.1063 8.54322 19.5938 6.50496 18.5167 4.75598C17.4395 3.007 15.8499 1.63216 13.9639 0.818344C12.0779 0.00453129 9.98711 -0.208764 7.97565 0.207455C5.96419 0.623673 4.1297 1.64921 2.72157 3.14466C1.31343 4.6401 0.399966 6.53289 0.105355 8.56573C-0.189256 10.5986 0.149279 12.6728 1.07494 14.5065C2.0006 16.3401 3.46847 17.8443 5.27901 18.8144C7.08955 19.7845 9.15491 20.1736 11.1943 19.9287C12.7481 19.7449 13.1031 17.8799 11.9956 16.7724C10.4206 15.1974 11.5368 12.5049 13.7643 12.5049H17.7468ZM12.5006 6.24991C12.5006 6.58144 12.3689 6.89938 12.1345 7.1338C11.9 7.36822 11.5821 7.49991 11.2506 7.49991C10.9191 7.49991 10.6011 7.36822 10.3667 7.1338C10.1323 6.89938 10.0006 6.58144 10.0006 6.24991C10.0006 5.91839 10.1323 5.60045 10.3667 5.36603C10.6011 5.13161 10.9191 4.99991 11.2506 4.99991C11.5821 4.99991 11.9 5.13161 12.1345 5.36603C12.3689 5.60045 12.5006 5.91839 12.5006 6.24991ZM7.50058 8.74992C7.8321 8.74992 8.15004 8.61822 8.38446 8.3838C8.61888 8.14938 8.75058 7.83144 8.75058 7.49991C8.75058 7.16839 8.61888 6.85045 8.38446 6.61603C8.15004 6.38161 7.8321 6.24991 7.50058 6.24991C7.16905 6.24991 6.85111 6.38161 6.61669 6.61603C6.38227 6.85045 6.25058 7.16839 6.25058 7.49991C6.25058 7.83144 6.38227 8.14938 6.61669 8.3838C6.85111 8.61822 7.16905 8.74992 7.50058 8.74992ZM7.50058 11.2499C7.50058 11.5814 7.36888 11.8994 7.13446 12.1338C6.90004 12.3682 6.5821 12.4999 6.25058 12.4999C5.91905 12.4999 5.60111 12.3682 5.36669 12.1338C5.13227 11.8994 5.00058 11.5814 5.00058 11.2499C5.00058 10.9184 5.13227 10.6005 5.36669 10.366C5.60111 10.1316 5.91905 9.99992 6.25058 9.99992C6.5821 9.99992 6.90004 10.1316 7.13446 10.366C7.36888 10.6005 7.50058 10.9184 7.50058 11.2499Z"
          fill="currentColor" />
      </g>
      <defs>
        <clipPath id="clip0_1921_657">
          <rect width="20" height="20" fill="white" />
        </clipPath>
      </defs>
    </svg>
    <svg id="help" xmlns="http://www.w3.org/2000/svg" width="20" height="20" viewBox="0 0 20 20" fill="none">
      <path
        d="M10 14.1667V14.175M2.5 10C2.5 10.9849 2.69399 11.9602 3.0709 12.8701C3.44781 13.7801 4.00026 14.6069 4.6967 15.3033C5.39314 15.9997 6.21993 16.5522 7.12987 16.9291C8.03982 17.306 9.01509 17.5 10 17.5C10.9849 17.5 11.9602 17.306 12.8701 16.9291C13.7801 16.5522 14.6069 15.9997 15.3033 15.3033C15.9997 14.6069 16.5522 13.7801 16.9291 12.8701C17.306 11.9602 17.5 10.9849 17.5 10C17.5 9.01509 17.306 8.03982 16.9291 7.12987C16.5522 6.21993 15.9997 5.39314 15.3033 4.6967C14.6069 4.00026 13.7801 3.44781 12.8701 3.0709C11.9602 2.69399 10.9849 2.5 10 2.5C9.01509 2.5 8.03982 2.69399 7.12987 3.0709C6.21993 3.44781 5.39314 4.00026 4.6967 4.6967C4.00026 5.39314 3.44781 6.21993 3.0709 7.12987C2.69399 8.03982 2.5 9.01509 2.5 10Z"
        stroke="currentColor" stroke-width="2" stroke-linecap="round" stroke-linejoin="round" />
      <path
        d="M10.0007 11.25C9.98531 10.9795 10.0583 10.7113 10.2086 10.4858C10.3589 10.2604 10.5784 10.0899 10.834 9.99998C11.1472 9.88019 11.4284 9.68934 11.6553 9.44244C11.8822 9.19554 12.0487 8.89933 12.1418 8.57713C12.2348 8.25494 12.2517 7.91555 12.1913 7.5857C12.1308 7.25584 11.9946 6.94452 11.7934 6.67624C11.5922 6.40796 11.3315 6.19005 11.0317 6.03966C10.732 5.88927 10.4014 5.81051 10.0661 5.80958C9.73074 5.80865 9.39975 5.88557 9.09919 6.0343C8.79862 6.18302 8.53668 6.39948 8.33398 6.66664"
        stroke="currentColor" stroke-width="2" stroke-linecap="round" stroke-linejoin="round" />
    </svg>
    <svg id="observe" xmlns="http://www.w3.org/2000/svg" width="20" height="16" viewBox="0 0 20 16" fill="none">
      <path
        d="M10 0C12.787 0 15.263 1.257 17.026 2.813C17.911 3.594 18.64 4.471 19.154 5.344C19.659 6.201 20 7.13 20 8C20 8.87 19.66 9.799 19.154 10.656C18.64 11.529 17.911 12.406 17.026 13.187C15.263 14.743 12.786 16 10 16C7.213 16 4.737 14.743 2.974 13.187C2.089 12.406 1.36 11.529 0.846 10.656C0.34 9.799 0 8.87 0 8C0 7.13 0.34 6.201 0.846 5.344C1.36 4.471 2.089 3.594 2.974 2.813C4.737 1.257 7.214 0 10 0ZM10 2C7.816 2 5.792 2.993 4.298 4.312C3.554 4.968 2.966 5.685 2.569 6.359C2.163 7.049 2 7.62 2 8C2 8.38 2.163 8.951 2.569 9.641C2.966 10.315 3.554 11.031 4.298 11.688C5.792 13.007 7.816 14 10 14C12.184 14 14.208 13.007 15.702 11.688C16.446 11.031 17.034 10.315 17.431 9.641C17.837 8.951 18 8.38 18 8C18 7.62 17.837 7.049 17.431 6.359C17.034 5.685 16.446 4.969 15.702 4.312C14.208 2.993 12.184 2 10 2ZM10 5C10.088 5 10.175 5.004 10.261 5.011C10.0439 5.39185 9.95792 5.8335 10.0163 6.26798C10.0747 6.70246 10.2743 7.10572 10.5843 7.41571C10.8943 7.7257 11.2975 7.92525 11.732 7.98366C12.1665 8.04208 12.6081 7.95611 12.989 7.739C13.0416 8.34117 12.911 8.94518 12.6145 9.47189C12.3179 9.9986 11.8692 10.4234 11.327 10.6907C10.7849 10.958 10.1746 11.0553 9.57622 10.9699C8.97784 10.8844 8.41922 10.6202 7.97357 10.2118C7.52792 9.80343 7.21603 9.26995 7.07876 8.68129C6.94149 8.09262 6.98524 7.47621 7.20429 6.91284C7.42334 6.34946 7.80746 5.8654 8.30633 5.52407C8.8052 5.18274 9.39554 5.00008 10 5Z"
        fill="currentColor" />
    </svg>
    <svg id="approve" xmlns="http://www.w3.org/2000/svg" width="22" height="22" viewBox="0 0 22 22" fill="none">
      <path
        d="M22 11L19.56 8.22004L19.9 4.54004L16.29 3.72004L14.4 0.540039L11 2.00004L7.6 0.540039L5.71 3.72004L2.1 4.53004L2.44 8.21004L0 11L2.44 13.78L2.1 17.47L5.71 18.29L7.6 21.47L11 20L14.4 21.46L16.29 18.28L19.9 17.46L19.56 13.78L22 11ZM9 16L5 12L6.41 10.59L9 13.17L15.59 6.58004L17 8.00004L9 16Z"
        fill="currentColor" />
    </svg>
    <svg id="reject" xmlns="http://www.w3.org/2000/svg" width="22" height="22" viewBox="0 0 22 22" fill="none">
      <g clip-path="url(#clip0_943_1544)">
        <path fill-rule="evenodd" clip-rule="evenodd"
          d="M11.0003 0.916748C5.43158 0.916748 0.916992 5.43133 0.916992 11.0001C0.916992 16.5688 5.43158 21.0834 11.0003 21.0834C16.5691 21.0834 21.0837 16.5688 21.0837 11.0001C21.0837 5.43133 16.5691 0.916748 11.0003 0.916748ZM14.3984 8.89817C14.5654 8.72528 14.6578 8.49373 14.6557 8.25338C14.6536 8.01303 14.5572 7.78312 14.3872 7.61316C14.2173 7.44321 13.9874 7.3468 13.747 7.34471C13.5067 7.34263 13.2751 7.43502 13.1022 7.602L11.0003 9.70392L8.89841 7.602C8.81385 7.51445 8.7127 7.44461 8.60086 7.39657C8.48903 7.34853 8.36874 7.32324 8.24703 7.32219C8.12531 7.32113 8.00461 7.34432 7.89195 7.39041C7.7793 7.4365 7.67695 7.50457 7.59088 7.59064C7.50481 7.67671 7.43675 7.77905 7.39066 7.89171C7.34457 8.00436 7.32137 8.12507 7.32243 8.24678C7.32349 8.3685 7.34877 8.48878 7.39682 8.60062C7.44486 8.71246 7.51469 8.81361 7.60224 8.89817L9.70416 11.0001L7.60224 13.102C7.51469 13.1866 7.44486 13.2877 7.39682 13.3995C7.34877 13.5114 7.32349 13.6317 7.32243 13.7534C7.32137 13.8751 7.34457 13.9958 7.39066 14.1085C7.43675 14.2211 7.50481 14.3235 7.59088 14.4095C7.67695 14.4956 7.7793 14.5637 7.89195 14.6098C8.00461 14.6558 8.12531 14.679 8.24703 14.678C8.36874 14.6769 8.48903 14.6516 8.60086 14.6036C8.7127 14.5556 8.81385 14.4857 8.89841 14.3982L11.0003 12.2962L13.1022 14.3982C13.2751 14.5651 13.5067 14.6575 13.747 14.6554C13.9874 14.6534 14.2173 14.557 14.3872 14.387C14.5572 14.217 14.6536 13.9871 14.6557 13.7468C14.6578 13.5064 14.5654 13.2749 14.3984 13.102L12.2965 11.0001L14.3984 8.89817Z"
          fill="currentColor" />
      </g>
      <defs>
        <clipPath id="clip0_943_1544">
          <rect width="22" height="22" fill="white" />
        </clipPath>
      </defs>
    </svg>
  </defs>
  <defs>
    <svg xmlns="http://www.w3.org/2000/svg" viewBox="0 0 256.001 256.001" id="messages">
      <rect width="256" height="256" fill="none"></rect>
      <path fill="none" stroke="currentColor" stroke-linecap="round" stroke-linejoin="round" stroke-width="24"
        d="M71.5834,144.00049l-39.58291,32v-128a8,8,0,0,1,8-8h128a8,8,0,0,1,8,8v88a8,8,0,0,1-8,8Z"></path>
      <path fill="none" stroke="currentColor" stroke-linecap="round" stroke-linejoin="round" stroke-width="24" d="M80.00049,144.00048v40a8,8,0,0,0,8,8h96.41709l39.58291,32v-128a8,8,0,0,0-8-8h-40">
      </path>
    </svg>
  </defs>
  <defs>
    <svg xmlns="http://www.w3.org/2000/svg" viewBox="0 0 256 256" id="templates">
      <rect width="256" height="256" fill="none"></rect>
      <rect width="192" height="144" x="32" y="56" fill="none" stroke="currentColor" stroke-linecap="round" stroke-linejoin="round" stroke-width="24" rx="16"></rect>
      <path fill="none" stroke="currentColor" stroke-linecap="round" stroke-linejoin="round" stroke-width="24"
        d="M32,100H88.80976A7.98836,7.98836,0,0,1,96.64,106.39917a32.00785,32.00785,0,0,0,62.7201,0A7.98836,7.98836,0,0,1,167.19024,100H224"></path>
    </svg>
  </defs>
  <defs>
    <svg xmlns="http://www.w3.org/2000/svg" viewBox="0 0 256 256" id="users">
      <rect width="256" height="256" fill="none"></rect>
      <circle cx="104" cy="148" r="28" fill="none" stroke="currentColor" stroke-linecap="round" stroke-linejoin="round" stroke-width="24"></circle>
      <polyline fill="none" stroke="currentColor" stroke-linecap="round" stroke-linejoin="round" stroke-width="24" points="188 172 188 84 68 84"></polyline>
      <path fill="none" stroke="currentColor" stroke-linecap="round" stroke-linejoin="round" stroke-width="24"
        d="M149.26463,207.99877,215.99985,208A8,8,0,0,0,224,200V56a8,8,0,0,0-8-8H40a8,8,0,0,0-8,8V200.00015a8,8,0,0,0,8.00059,8l18.73446-.00139-.00295-.001a48.01963,48.01963,0,0,1,90.53578-.00006Z">
      </path>
    </svg>
  </defs>
  <defs>
    <svg xmlns="http://www.w3.org/2000/svg" viewBox="0 0 256 256" id="actions">
      <rect width="256" height="256" fill="none"></rect>
      <circle cx="128" cy="128" r="96" fill="none" stroke="currentColor" stroke-linecap="round" stroke-linejoin="round" stroke-width="24"></circle>
      <polyline fill="none" stroke="currentColor" stroke-linecap="round" stroke-linejoin="round" stroke-width="24" points="88 160 120 128 88 96"></polyline>
      <polyline fill="none" stroke="currentColor" stroke-linecap="round" stroke-linejoin="round" stroke-width="24" points="144 160 176 128 144 96"></polyline>
    </svg>
  </defs>
  <defs>
    <svg xmlns="http://www.w3.org/2000/svg" viewBox="0 0 256 256" id="profiles">
      <rect width="256" height="256" fill="none"></rect>
      <line x1="152" x2="184" y1="108" y2="108" fill="none" stroke="currentColor" stroke-linecap="round" stroke-linejoin="round" stroke-width="24"></line>
      <line x1="152" x2="184" y1="148" y2="148" fill="none" stroke="currentColor" stroke-linecap="round" stroke-linejoin="round" stroke-width="24"></line>
      <circle cx="94.1" cy="116" r="22" fill="none" stroke="currentColor" stroke-linecap="round" stroke-linejoin="round" stroke-width="24"></circle>
      <path fill="none" stroke="currentColor" stroke-linecap="round" stroke-linejoin="round" stroke-width="24" d="M72.1004,164a22,22,0,0,1,44,0"></path>
      <rect width="192" height="160" x="32" y="48" fill="none" stroke="currentColor" stroke-linecap="round" stroke-linejoin="round" stroke-width="24" rx="8"></rect>
    </svg>
  </defs>
  <defs>
    <svg xmlns="http://www.w3.org/2000/svg" viewBox="0 0 256 256" id="permissions">
      <rect width="256" height="256" fill="none"></rect>
      <path fill="none" stroke="currentColor" stroke-linecap="round" stroke-linejoin="round" stroke-width="24"
        d="M93.16866,122.8328a71.93648,71.93648,0,1,1,40.0009,40.001l.00062-.00149L120.00244,176h-24v24h-24v24h-40V184l61.168-61.168Z"></path>
      <circle cx="180" cy="76" r="4" fill="none" stroke="currentColor" stroke-linecap="round" stroke-linejoin="round" stroke-width="24" opacity=".5"></circle>
      <circle cx="180" cy="76" r="16"></circle>
    </svg>
  </defs>
  <defs>
    <svg xmlns="http://www.w3.org/2000/svg" viewBox="0 0 256 256" id="applications">
      <rect width="256" height="256" fill="none"></rect>
      <path fill="none" stroke="currentColor" stroke-linecap="round" stroke-linejoin="round" stroke-width="24"
        d="M40 168V72A16 16 0 0 1 56 56H200a16 16 0 0 1 16 16v96M24 168H232a0 0 0 0 1 0 0v24a16 16 0 0 1-16 16H40a16 16 0 0 1-16-16V168a0 0 0 0 1 0 0z"></path>
      <line x1="144" x2="112" y1="96" y2="96" fill="none" stroke="currentColor" stroke-linecap="round" stroke-linejoin="round" stroke-width="24"></line>
    </svg>
  </defs>
  <defs>
    <svg fill="none" xmlns="http://www.w3.org/2000/svg" stroke="currentColor" viewBox="0 0 24 24" id="dashboard">
      <path xmlns="http://www.w3.org/2000/svg" stroke="currentColor" stroke-width="2"
        d="M4 5a1 1 0 011-1h4a1 1 0 011 1v5a1 1 0 01-1 1H5a1 1 0 01-1-1V5zm10 0a1 1 0 011-1h4a1 1 0 011 1v2a1 1 0 01-1 1h-4a1 1 0 01-1-1V5zM4 16a1 1 0 011-1h4a1 1 0 011 1v3a1 1 0 01-1 1H5a1 1 0 01-1-1v-3zm10-3a1 1 0 011-1h4a1 1 0 011 1v6a1 1 0 01-1 1h-4a1 1 0 01-1-1v-6z" />
    </svg>
  </defs>
  <defs>
    <svg xmlns="http://www.w3.org/2000/svg" viewBox="0 0 256 256" id="warning">
      <rect width="256" height="256" fill="none"></rect>
      <path fill="none" stroke="currentColor" stroke-linecap="round" stroke-linejoin="round" stroke-width="24"
        d="M54.46089,201.53911c-9.204-9.204-3.09935-28.52745-7.78412-39.85C41.82037,149.95168,24,140.50492,24,127.99963,24,115.4945,41.82047,106.048,46.67683,94.31079c4.68477-11.32253-1.41993-30.6459,7.78406-39.8499s28.52746-3.09935,39.85-7.78412C106.04832,41.82037,115.49508,24,128.00037,24c12.50513,0,21.95163,17.82047,33.68884,22.67683,11.32253,4.68477,30.6459-1.41993,39.8499,7.78406s3.09935,28.52746,7.78412,39.85C214.17963,106.04832,232,115.49508,232,128.00037c0,12.50513-17.82047,21.95163-22.67683,33.68884-4.68477,11.32253,1.41993,30.6459-7.78406,39.8499s-28.52745,3.09935-39.85,7.78412C149.95168,214.17963,140.50492,232,127.99963,232c-12.50513,0-21.95163-17.82047-33.68884-22.67683C82.98826,204.6384,63.66489,210.7431,54.46089,201.53911Z">
      </path>
      <line x1="128" x2="128" y1="80" y2="132" fill="none" stroke="currentColor" stroke-linecap="round" stroke-linejoin="round" stroke-width="24"></line>
      <circle cx="128" cy="172" r="16"></circle>
    </svg>
  </defs>
  <svg xmlns="http://www.w3.org/2000/svg" viewBox="0 0 256 256" id="chart">
    <rect width="256" height="256" fill="none"></rect>
    <line x1="128" x2="128" y1="128" y2="32" fill="none" stroke="currentColor" stroke-linecap="round" stroke-linejoin="round" stroke-width="24"></line>
    <line x1="211.138" x2="44.862" y1="80" y2="176" fill="none" stroke="currentColor" stroke-linecap="round" stroke-linejoin="round" stroke-width="24"></line>
    <path fill="none" stroke="currentColor" stroke-linecap="round" stroke-linejoin="round" stroke-width="24"
      d="M128 32A96 96 0 1 1 45.21664 176.64005M87.99413 106.14643L32.532 138.16712A97.09884 97.09884 0 0 1 32 128 96.0159 96.0159 0 0 1 87.99362 40.7076z"></path>
  </svg>
  <?xml version="1.0" encoding="utf-8"?>
  <!-- Generator: Adobe Illustrator 28.1.0, SVG Export Plug-In . SVG Version: 6.00 Build 0)  -->
  <svg width="204" height="110" viewBox="0 0 204 110" fill="none" id="clonesx-light" xmlns="http://www.w3.org/2000/svg" x="0px" y="0px" viewBox="0 0 1920 723.7">

    <path
      d="M22.7 56.55C21.7667 56.7833 20.5833 56.9833 19.15 57.15C17.7167 57.3167 16.3667 57.4 15.1 57.4C11.3333 57.4 8.55 56.8833 6.75 55.85C4.98333 54.7833 3.8 53.05 3.2 50.65C2.63333 48.25 2.35 44.6333 2.35 39.8C2.35 35.0333 2.65 31.45 3.25 29.05C3.85 26.6167 5.03333 24.8667 6.8 23.8C8.6 22.7333 11.3667 22.2 15.1 22.2C16.4 22.2 17.7333 22.2833 19.1 22.45C20.5 22.6167 21.65 22.8333 22.55 23.1V29.1C19.7167 28.8 17.8333 28.65 16.9 28.65C14.6333 28.65 13.0667 28.8833 12.2 29.35C11.3667 29.7833 10.8333 30.7 10.6 32.1C10.3667 33.4667 10.25 36.0333 10.25 39.8C10.25 43.5667 10.3667 46.15 10.6 47.55C10.8333 48.9167 11.3667 49.8333 12.2 50.3C13.0667 50.7333 14.6333 50.95 16.9 50.95C18.8333 50.95 20.7667 50.8 22.7 50.5V56.55ZM27.7117 57V22.6H35.4617V50.3H46.8617V57H27.7117ZM63.1027 57.4C58.9361 57.4 55.9527 56.9 54.1527 55.9C52.3861 54.8667 51.2694 53.2333 50.8027 51C50.3694 48.7333 50.1527 45 50.1527 39.8C50.1527 34.6 50.3694 30.8833 50.8027 28.65C51.2694 26.3833 52.3861 24.75 54.1527 23.75C55.9527 22.7167 58.9361 22.2 63.1027 22.2C67.3027 22.2 70.2861 22.7167 72.0527 23.75C73.8527 24.75 74.9694 26.3667 75.4027 28.6C75.8361 30.8333 76.0527 34.5667 76.0527 39.8C76.0527 45.0333 75.8361 48.7667 75.4027 51C74.9694 53.2333 73.8527 54.8667 72.0527 55.9C70.2861 56.9 67.3027 57.4 63.1027 57.4ZM63.1027 50.95C64.9027 50.95 66.1027 50.7667 66.7027 50.4C67.3361 50.0333 67.7361 49.1667 67.9027 47.8C68.0694 46.4333 68.1527 43.7667 68.1527 39.8C68.1527 35.8333 68.0694 33.1667 67.9027 31.8C67.7361 30.4333 67.3361 29.5667 66.7027 29.2C66.1027 28.8333 64.9027 28.65 63.1027 28.65C61.3027 28.65 60.0861 28.8333 59.4527 29.2C58.8527 29.5667 58.4694 30.4333 58.3027 31.8C58.1361 33.1667 58.0527 35.8333 58.0527 39.8C58.0527 43.7667 58.1361 46.4333 58.3027 47.8C58.4694 49.1667 58.8527 50.0333 59.4527 50.4C60.0861 50.7667 61.3027 50.95 63.1027 50.95ZM99.318 57L89.218 37.35H88.968V57H81.518V22.6H89.368L98.818 40.65H99.068V22.6H106.518V57H99.318ZM112.819 57V22.6H133.519V29.05H120.569V36.4H131.669V42.85H120.569V50.55H133.519V57H112.819ZM160.529 57.4C156.362 57.4 152.679 57.1167 149.479 56.55V50.45C153.612 50.7833 156.545 50.95 158.279 50.95C159.645 50.95 160.712 50.8833 161.479 50.75C162.245 50.6167 162.795 50.3833 163.129 50.05C163.429 49.75 163.612 49.3833 163.679 48.95C163.779 48.5167 163.829 47.9 163.829 47.1C163.829 46.0333 163.762 45.2833 163.629 44.85C163.495 44.3833 163.212 44.05 162.779 43.85C162.379 43.65 161.679 43.4667 160.679 43.3L155.129 42.5C152.595 42.1333 150.879 41.15 149.979 39.55C149.079 37.95 148.629 35.65 148.629 32.65C148.629 29.75 149.112 27.5333 150.079 26C151.045 24.4667 152.362 23.45 154.029 22.95C155.695 22.45 157.812 22.2 160.379 22.2C163.545 22.2 166.795 22.5333 170.129 23.2V29.2C167.129 28.8333 164.462 28.65 162.129 28.65C159.662 28.65 158.079 28.8833 157.379 29.35C156.979 29.5833 156.729 29.9167 156.629 30.35C156.529 30.75 156.479 31.3833 156.479 32.25C156.479 33.2167 156.529 33.9 156.629 34.3C156.729 34.7 156.945 35 157.279 35.2C157.645 35.3667 158.262 35.5167 159.129 35.65L165.079 36.5C166.412 36.7 167.512 37.0333 168.379 37.5C169.279 37.9667 170.012 38.7667 170.579 39.9C171.279 41.3667 171.629 43.4667 171.629 46.2C171.629 49.4 171.179 51.8167 170.279 53.45C169.379 55.0833 168.145 56.15 166.579 56.65C165.045 57.15 163.029 57.4 160.529 57.4ZM194.184 57L188.584 45.5H188.184L182.584 57H174.234L183.484 39.7L174.384 22.6H183.034L188.434 33.75H188.834L194.334 22.6H202.734L193.634 39.55L202.834 57H194.184Z"
      fill="url(#paint0_linear_261_839)" />
    <path
      d="M60.4 92L59 86.48H50.88L49.56 92H43.32L50.68 64.48H59.4L66.72 92H60.4ZM55.04 70.08H54.8L52.12 81.36H57.76L55.04 70.08ZM69.6225 64.48H78.2625C81.7292 64.48 84.1958 64.88 85.6625 65.68C87.1558 66.48 88.0758 67.76 88.4225 69.52C88.7958 71.28 88.9825 74.1867 88.9825 78.24C88.9825 82.2933 88.7958 85.2 88.4225 86.96C88.0758 88.72 87.1558 90 85.6625 90.8C84.1958 91.6 81.7292 92 78.2625 92H69.6225V64.48ZM78.1025 86.84C79.7558 86.84 80.8625 86.7067 81.4225 86.44C81.9825 86.1733 82.3292 85.52 82.4625 84.48C82.6225 83.4133 82.7025 81.3333 82.7025 78.24C82.7025 75.1467 82.6225 73.08 82.4625 72.04C82.3025 70.9733 81.9425 70.3067 81.3825 70.04C80.8492 69.7733 79.7558 69.64 78.1025 69.64H75.8225V86.84H78.1025ZM114.611 92V72.96H114.331L109.331 92H104.451L99.4906 72.96H99.2106V92H93.3706V64.48H102.291L106.891 82.12H107.171L111.771 64.48H120.611V92H114.611ZM125.598 92V64.48H131.838V92H125.598ZM151.048 92L142.968 76.28H142.768V92H136.808V64.48H143.088L150.648 78.92H150.848V64.48H156.808V92H151.048Z"
      fill="url(#paint1_linear_261_839)" />
    <defs>
      <linearGradient id="paint0_linear_261_839" x1="0" y1="39.5" x2="204" y2="39.5" gradientUnits="userSpaceOnUse">
        <stop stop-color="#D350F2" />
        <stop offset="1" stop-color="#AB66FF" />
      </linearGradient>
      <linearGradient id="paint1_linear_261_839" x1="43" y1="78.5" x2="160" y2="78.5" gradientUnits="userSpaceOnUse">
        <stop stop-color="#D350F2" />
        <stop offset="1" stop-color="#AB66FF" />
      </linearGradient>
    </defs>
  </svg>



  <svg xmlns="http://www.w3.org/2000/svg" width="33" height="33" viewBox="0 0 33 33" fill="none" id="pie">
    <path
      d="M16.6028 3.56494C9.23953 3.56494 3.26355 9.53827 3.26355 16.8983C3.26355 24.2583 9.23953 30.2316 16.6028 30.2316C23.9661 30.2316 29.942 24.2583 29.942 16.8983C29.942 9.53827 23.9661 3.56494 16.6028 3.56494ZM11.2671 24.2316C10.3826 24.2316 9.53443 23.8804 8.90903 23.2553C8.28363 22.6302 7.93228 21.7823 7.93228 20.8983C7.93228 20.0142 8.28363 19.1664 8.90903 18.5413C9.53443 17.9161 10.3826 17.5649 11.2671 17.5649C12.1515 17.5649 12.9998 17.9161 13.6252 18.5413C14.2506 19.1664 14.6019 20.0142 14.6019 20.8983C14.6019 21.7823 14.2506 22.6302 13.6252 23.2553C12.9998 23.8804 12.1515 24.2316 11.2671 24.2316ZM13.268 11.5649C13.268 10.6809 13.6193 9.83304 14.2447 9.20792C14.8701 8.5828 15.7183 8.23161 16.6028 8.23161C17.4872 8.23161 18.3355 8.5828 18.9609 9.20792C19.5863 9.83304 19.9376 10.6809 19.9376 11.5649C19.9376 12.449 19.5863 13.2968 18.9609 13.922C18.3355 14.5471 17.4872 14.8983 16.6028 14.8983C15.7183 14.8983 14.8701 14.5471 14.2447 13.922C13.6193 13.2968 13.268 12.449 13.268 11.5649ZM21.9385 24.2316C21.054 24.2316 20.2058 23.8804 19.5804 23.2553C18.955 22.6302 18.6037 21.7823 18.6037 20.8983C18.6037 20.0142 18.955 19.1664 19.5804 18.5413C20.2058 17.9161 21.054 17.5649 21.9385 17.5649C22.8229 17.5649 23.6712 17.9161 24.2966 18.5413C24.922 19.1664 25.2733 20.0142 25.2733 20.8983C25.2733 21.7823 24.922 22.6302 24.2966 23.2553C23.6712 23.8804 22.8229 24.2316 21.9385 24.2316Z"
      fill="currentColor" />
  </svg>
  <svg xmlns="http://www.w3.org/2000/svg" width="50" height="50" viewBox="0 0 50 50" fill="none" id="bar">
    <path fill-rule="evenodd" clip-rule="evenodd"
      d="M3.66 3.66C0 7.325 0 13.215 0 25C0 36.785 0 42.6775 3.66 46.3375C7.325 50 13.215 50 25 50C36.785 50 42.6775 50 46.3375 46.3375C50 42.68 50 36.785 50 25C50 13.215 50 7.3225 46.3375 3.66C42.68 0 36.785 0 25 0C13.215 0 7.3225 0 3.66 3.66ZM29.375 20C29.375 21.035 30.215 21.875 31.25 21.875H32.975L27.9425 26.9075C27.8844 26.9657 27.8155 27.0119 27.7395 27.0434C27.6636 27.0749 27.5822 27.0911 27.5 27.0911C27.4178 27.0911 27.3364 27.0749 27.2605 27.0434C27.1845 27.0119 27.1156 26.9657 27.0575 26.9075L23.0925 22.9425C22.2721 22.1227 21.1598 21.6622 20 21.6622C18.8402 21.6622 17.7279 22.1227 16.9075 22.9425L11.175 28.675C10.9908 28.8467 10.843 29.0537 10.7405 29.2837C10.6381 29.5137 10.583 29.7619 10.5785 30.0137C10.5741 30.2655 10.6204 30.5155 10.7147 30.749C10.809 30.9825 10.9494 31.1945 11.1274 31.3726C11.3055 31.5506 11.5175 31.691 11.751 31.7853C11.9845 31.8796 12.2345 31.9259 12.4863 31.9215C12.7381 31.917 12.9863 31.8619 13.2163 31.7595C13.4463 31.657 13.6533 31.5092 13.825 31.325L19.5575 25.5925C19.6156 25.5343 19.6845 25.4881 19.7605 25.4566C19.8364 25.4251 19.9178 25.4089 20 25.4089C20.0822 25.4089 20.1636 25.4251 20.2395 25.4566C20.3155 25.4881 20.3844 25.5343 20.4425 25.5925L24.4075 29.5575C25.2279 30.3773 26.3402 30.8378 27.5 30.8378C28.6598 30.8378 29.7721 30.3773 30.5925 29.5575L35.625 24.5275V26.25C35.625 26.7473 35.8225 27.2242 36.1742 27.5758C36.5258 27.9275 37.0027 28.125 37.5 28.125C37.9973 28.125 38.4742 27.9275 38.8258 27.5758C39.1775 27.2242 39.375 26.7473 39.375 26.25V20C39.375 19.5027 39.1775 19.0258 38.8258 18.6742C38.4742 18.3225 37.9973 18.125 37.5 18.125H31.25C30.7527 18.125 30.2758 18.3225 29.9242 18.6742C29.5725 19.0258 29.375 19.5027 29.375 20Z"
      fill="currentColor" />
  </svg>
  <svg xmlns="http://www.w3.org/2000/svg" width="18" height="18" viewBox="0 0 18 18" fill="none" id="contacts">
    <path
      d="M9 0.666504C7.90566 0.666504 6.82202 0.882052 5.81098 1.30084C4.79993 1.71963 3.88127 2.33346 3.10745 3.10728C1.54465 4.67008 0.666672 6.7897 0.666672 8.99984C0.666672 11.21 1.54465 13.3296 3.10745 14.8924C3.88127 15.6662 4.79993 16.28 5.81098 16.6988C6.82202 17.1176 7.90566 17.3332 9 17.3332C11.2101 17.3332 13.3298 16.4552 14.8926 14.8924C16.4554 13.3296 17.3333 11.21 17.3333 8.99984C17.3333 7.90549 17.1178 6.82185 16.699 5.81081C16.2802 4.79976 15.6664 3.8811 14.8926 3.10728C14.1187 2.33346 13.2001 1.71963 12.189 1.30084C11.178 0.882052 10.0944 0.666504 9 0.666504ZM4.89167 14.2332C5.25001 13.4832 7.43334 12.7498 9 12.7498C10.5667 12.7498 12.75 13.4832 13.1083 14.2332C11.9412 15.1632 10.4924 15.6686 9 15.6665C7.45001 15.6665 6.02501 15.1332 4.89167 14.2332ZM14.3 13.0248C13.1083 11.5748 10.2167 11.0832 9 11.0832C7.78334 11.0832 4.89167 11.5748 3.7 13.0248C2.81349 11.8704 2.33306 10.4554 2.33334 8.99984C2.33334 5.32484 5.32501 2.33317 9 2.33317C12.675 2.33317 15.6667 5.32484 15.6667 8.99984C15.6667 10.5165 15.15 11.9165 14.3 13.0248ZM9 3.99984C7.38334 3.99984 6.08334 5.29984 6.08334 6.9165C6.08334 8.53317 7.38334 9.83317 9 9.83317C10.6167 9.83317 11.9167 8.53317 11.9167 6.9165C11.9167 5.29984 10.6167 3.99984 9 3.99984ZM9 8.1665C8.66848 8.1665 8.35054 8.03481 8.11612 7.80039C7.8817 7.56597 7.75 7.24802 7.75 6.9165C7.75 6.58498 7.8817 6.26704 8.11612 6.03262C8.35054 5.7982 8.66848 5.6665 9 5.6665C9.33153 5.6665 9.64947 5.7982 9.88389 6.03262C10.1183 6.26704 10.25 6.58498 10.25 6.9165C10.25 7.24802 10.1183 7.56597 9.88389 7.80039C9.64947 8.03481 9.33153 8.1665 9 8.1665Z"
      fill="currentColor" />
  </svg>
  <svg id="logo" fill="none">
    <g>
      <path class="std0" d="M1826.9,252.9L1826.9,252.9c-17.6-78-87.2-136.2-170.5-136.2c-96.5,0-174.8,78.3-174.8,174.8
		c0,10.4,0.9,20.7,2.7,30.6c6.9,39.3,27,74.1,55.6,99.6l-58.3,44.6h174.8c96.5,0,174.8-78.3,174.8-174.8
		C1831.1,278.2,1829.7,265.2,1826.9,252.9z M1748.4,250.3h-55.2c1.9-7.7,0.6-13.5-3.5-17.7c-3.8-4.1-10.6-6.4-20-6.4
		c-12.7,0-25.4,8.3-27.6,18.2c-3.1,14.6,13.6,19.3,27.4,23.2c14.1,3.8,31.4,6.6,45.3,13.3c17.2,8.3,29,22.6,22.7,52.4
		c-8.9,42-54.6,61.8-100.6,61.8c-46.3,0-84.4-13.6-73.7-67.6h55.2c-4.2,18.8,7.4,29,27.2,29c12.7,0,30.4-6.6,33.2-19.9
		c5.2-24.4-28.6-22.1-64.1-35.4c-3.8-1.4-7.7-3-11.5-4.9c-18.3-8.8-24.3-27-19.7-48.6c12.2-47.2,56.4-60.2,98-60.2
		C1722.8,187.6,1761.9,202.2,1748.4,250.3z" />
    </g>
  </svg>
  <svg width="9" height="9" viewBox="0 0 9 9" fill="none" xmlns="http://www.w3.org/2000/svg" id="copy">
    <mask id="mask0_141_28488" style="mask-type:luminance" maskUnits="userSpaceOnUse" x="0" y="0" width="9" height="9">
      <path d="M8.82568 0.0688477H0.825684V8.06885H8.82568V0.0688477Z" fill="white" />
    </mask>
    <g mask="url(#mask0_141_28488)">
      <path
        d="M4.57068 0.11377H4.85668L4.98968 0.13177C5.16968 0.15577 5.35368 0.16577 5.53068 0.20477C6.56346 0.415352 7.47251 1.02246 8.06268 1.89577C8.42016 2.40644 8.64929 2.99575 8.73068 3.61377C8.74968 3.75477 8.76368 3.89577 8.77968 4.03677V4.32277C8.77368 4.36677 8.76768 4.41077 8.76168 4.45477C8.73768 4.63477 8.72668 4.81777 8.68868 4.99577C8.4925 5.96214 7.94798 6.8227 7.15868 7.41377C6.61269 7.836 5.96482 8.10646 5.28068 8.19777C5.13968 8.21677 4.99768 8.23077 4.85668 8.24677H4.57068L4.43768 8.22877C4.25768 8.20477 4.07368 8.19477 3.89668 8.15577C2.8637 7.94504 1.95459 7.33753 1.36468 6.46377C1.00756 5.953 0.778773 5.3637 0.697682 4.74577C0.678682 4.60577 0.664682 4.46377 0.648682 4.32277V4.03677C0.654682 3.99277 0.660682 3.94877 0.666682 3.90477C0.690682 3.72477 0.701682 3.54177 0.739682 3.36377C0.936058 2.39828 1.48017 1.53852 2.26868 0.94777C2.81524 0.525218 3.46384 0.254739 4.14868 0.16377C4.28768 0.14377 4.42968 0.13077 4.57068 0.11377ZM4.71668 0.87177C4.06258 0.870386 3.42276 1.06301 2.87813 1.42528C2.33351 1.78755 1.90855 2.30319 1.65701 2.907C1.40546 3.5108 1.33862 4.17564 1.46494 4.81743C1.59127 5.45922 1.90508 6.04913 2.36669 6.51256C2.8283 6.97599 3.41698 7.29212 4.05827 7.42097C4.69956 7.54982 5.36465 7.48559 5.96944 7.23642C6.57423 6.98725 7.09154 6.56432 7.45595 6.02113C7.82036 5.47793 8.01549 4.83887 8.01668 4.18477C8.01826 3.75048 7.9341 3.32016 7.76903 2.91846C7.60396 2.51676 7.36122 2.1516 7.05474 1.84391C6.74826 1.53622 6.38405 1.29205 5.98301 1.1254C5.58196 0.958748 5.15197 0.872898 4.71768 0.87277"
        fill="#F7F7F7" />
      <path
        d="M6.3188 2.54687L5.7768 3.08887C5.4887 2.80831 5.10244 2.65131 4.7003 2.65131C4.29816 2.65131 3.91191 2.80831 3.6238 3.08887C3.36301 3.36145 3.20828 3.71831 3.18756 4.09498C3.16684 4.47166 3.28149 4.84333 3.5108 5.14287C3.63865 5.3001 3.7963 5.43052 3.97469 5.52666C4.15307 5.6228 4.34869 5.68277 4.55031 5.70312C4.75193 5.72347 4.95559 5.7038 5.14959 5.64524C5.34359 5.58668 5.52411 5.49038 5.6808 5.36187L6.1218 5.95087C5.68869 6.30591 5.1387 6.48658 4.57942 6.45755C4.02014 6.42851 3.49182 6.19185 3.0978 5.79387C2.67811 5.36465 2.4441 4.78757 2.4463 4.18726C2.44851 3.58695 2.68677 3.01161 3.1096 2.58548C3.53244 2.15936 4.10593 1.91667 4.7062 1.90982C5.30647 1.90297 5.88535 2.13251 6.3178 2.54887"
        fill="#F7F7F7" />
    </g>
  </svg>
  <svg width="9" height="9" viewBox="0 0 9 9" fill="none" xmlns="http://www.w3.org/2000/svg" id="world">
    <mask id="mask0_141_28479" style="mask-type:luminance" maskUnits="userSpaceOnUse" x="0" y="0" width="9" height="9">
      <path d="M8.90368 0.125488H0.825684V8.20449H8.90368V0.125488Z" fill="white" />
    </mask>
    <g mask="url(#mask0_141_28479)">
      <path
        d="M4.62562 8.20451C4.46962 8.18351 4.31262 8.17052 4.15862 8.14052C3.55353 8.03783 2.98044 7.79642 2.48425 7.43521C1.98806 7.074 1.58225 6.60279 1.29862 6.05852C0.92509 5.37565 0.765515 4.59624 0.840624 3.82152C0.888954 3.24099 1.0648 2.67828 1.35562 2.17352C1.36962 2.14952 1.40062 2.13552 1.42362 2.11752C1.42362 2.11752 1.43362 2.11752 1.43862 2.11752C1.50626 2.10046 1.57514 2.08875 1.64462 2.08252L1.38162 2.29352C1.48575 2.38691 1.61808 2.44288 1.75762 2.45252C2.05154 2.44402 2.34393 2.40684 2.63062 2.34152C2.66038 2.33056 2.69322 2.33151 2.72228 2.34418C2.75135 2.35685 2.7744 2.38027 2.78662 2.40952C2.89162 2.59452 3.00962 2.77252 3.11762 2.95552C3.14074 2.99545 3.15379 3.04041 3.15562 3.08652C3.15562 3.25252 3.15562 3.41752 3.15562 3.58652C3.15743 3.63474 3.17267 3.6815 3.19962 3.72152C3.35962 3.94652 3.52662 4.16652 3.68762 4.38952C3.70011 4.4147 3.72201 4.43396 3.74858 4.44313C3.77515 4.4523 3.80426 4.45064 3.82962 4.43852V4.19852H3.84662C3.90362 4.31752 3.96462 4.43552 4.01762 4.55752C4.02607 4.58174 4.04096 4.6032 4.06069 4.61959C4.08043 4.63598 4.10426 4.64667 4.12962 4.65052C4.30462 4.68652 4.47862 4.72452 4.65162 4.76752C4.69889 4.77975 4.74226 4.80384 4.77762 4.83752C4.92462 4.98252 5.05362 5.15352 5.30462 5.15352C5.25162 5.26552 5.20462 5.35352 5.16462 5.44852C5.12462 5.54352 5.04162 5.63952 5.04362 5.73352C5.0648 5.83368 5.11089 5.92688 5.17762 6.00452C5.3285 6.2873 5.43763 6.59046 5.50162 6.90453C5.50594 6.9303 5.50388 6.95673 5.49562 6.98152C5.45462 7.15252 5.42262 7.32652 5.36762 7.49352C5.32756 7.67561 5.32315 7.86374 5.35462 8.04752C5.35462 8.08652 5.36062 8.12453 5.36362 8.16753L5.06362 8.20552L4.62562 8.20451Z"
        fill="#F7F7F7" />
      <path
        d="M8.90352 4.33847C8.88352 4.51047 8.87152 4.68347 8.84152 4.85347C8.70769 5.61771 8.35679 6.32729 7.83069 6.89754C7.30459 7.46779 6.62552 7.87462 5.87453 8.06948L5.81653 8.08247C5.85753 7.95147 5.85752 7.82147 5.99852 7.74147C6.17717 7.63557 6.3504 7.52076 6.51753 7.39748C6.5561 7.36825 6.58613 7.32924 6.60452 7.28448C6.65452 7.16648 6.69253 7.04248 6.74153 6.92448C6.75739 6.88777 6.78476 6.85723 6.81952 6.83747C6.94052 6.77548 7.06653 6.72148 7.18953 6.66248C7.21584 6.65192 7.23846 6.63383 7.25453 6.61047C7.40153 6.33447 7.54552 6.05747 7.69252 5.77647C7.67052 5.76147 7.65252 5.74848 7.63252 5.73648C7.55552 5.69048 7.48152 5.63647 7.40152 5.60147C7.11514 5.46136 6.86576 5.25582 6.67352 5.00148C6.64141 4.96947 6.60021 4.94816 6.55553 4.94048C6.44653 4.91348 6.33453 4.89448 6.22453 4.87148C6.03453 4.83248 5.84552 4.78348 5.65352 4.75748C5.57252 4.75498 5.49205 4.77142 5.41852 4.80548C5.4008 4.81624 5.38106 4.82322 5.36052 4.82596C5.33997 4.82871 5.31908 4.82717 5.29916 4.82143C5.27924 4.8157 5.26072 4.80591 5.24478 4.79266C5.22884 4.77941 5.21581 4.76301 5.20653 4.74448C5.17244 4.69179 5.12643 4.64787 5.07224 4.61625C5.01804 4.58464 4.95717 4.56622 4.89453 4.56248L4.90953 4.27048C4.83802 4.24661 4.76014 4.25053 4.69139 4.28148C4.62264 4.31242 4.56807 4.36812 4.53853 4.43748L4.45752 4.09647C4.55752 4.04947 4.64953 4.00348 4.74553 3.96148C4.76752 3.9553 4.79101 3.95744 4.81152 3.96748C4.88652 3.99948 4.95753 4.04247 5.03453 4.06747C5.09988 4.08457 5.167 4.09396 5.23453 4.09547C5.24365 4.09358 5.25212 4.08937 5.25912 4.08324C5.26613 4.0771 5.27144 4.06926 5.27452 4.06047C5.29152 3.84947 5.44353 3.72047 5.55753 3.56047C5.7069 3.34652 5.91541 3.18076 6.15753 3.08348C6.26353 3.02129 6.37541 2.96971 6.49153 2.92947C6.61404 2.92524 6.73654 2.93803 6.85553 2.96748C6.92253 2.83848 6.91653 2.79248 6.82253 2.69648C6.76953 2.64248 6.72253 2.58447 6.66153 2.53347C6.49095 2.38809 6.35873 2.20299 6.27652 1.99448C6.2706 1.97182 6.25618 1.95232 6.23625 1.94003C6.21632 1.92774 6.19243 1.9236 6.16953 1.92847C6.05256 1.93584 5.93594 1.90946 5.83353 1.85247C5.71309 1.81206 5.58817 1.78654 5.46153 1.77647L5.38353 2.20148C5.24753 2.17548 5.11652 2.15247 4.98352 2.12447C4.96652 2.12447 4.94753 2.08847 4.94553 2.06747C4.93953 1.99647 4.91553 1.91047 4.94553 1.85847C4.97553 1.80647 5.06453 1.81847 5.12953 1.81047C5.14879 1.81061 5.16787 1.80693 5.1857 1.79965C5.20353 1.79237 5.21975 1.78164 5.23341 1.76807C5.24708 1.7545 5.25792 1.73836 5.26532 1.72058C5.27272 1.7028 5.27652 1.68373 5.27652 1.66447C5.29352 1.54847 5.32753 1.43448 5.35753 1.30848C5.45753 1.35148 5.56353 1.38947 5.65753 1.43647C5.67353 1.44447 5.68153 1.49247 5.67653 1.51847C5.66967 1.53738 5.6673 1.55761 5.66959 1.57759C5.67187 1.59757 5.67876 1.61674 5.68971 1.63361C5.70066 1.65047 5.71538 1.66456 5.7327 1.67478C5.75002 1.68499 5.76946 1.69105 5.78952 1.69247C5.82452 1.70213 5.85813 1.71624 5.88953 1.73447C5.95144 1.7726 6.02466 1.78805 6.09669 1.77821C6.16873 1.76836 6.23512 1.73382 6.28453 1.68048C6.21853 1.60448 6.15152 1.52347 6.08452 1.44847C6.00483 1.36083 5.91967 1.27833 5.82953 1.20148C5.79039 1.17156 5.76215 1.12964 5.74915 1.08213C5.73614 1.03462 5.73908 0.984152 5.75752 0.938477C5.91652 0.991477 6.08552 0.975476 6.23552 1.09848C6.41864 1.25294 6.54499 1.46409 6.59453 1.69847C6.61062 1.7648 6.64782 1.82411 6.70053 1.86747C6.82053 1.96747 6.93353 2.08048 7.05353 2.18248C7.1176 2.23151 7.18437 2.27691 7.25352 2.31847C7.31152 2.22747 7.36153 2.15348 7.40553 2.07648C7.41635 2.05437 7.43311 2.03572 7.45396 2.02264C7.47482 2.00957 7.49892 2.00258 7.52353 2.00248C7.70153 1.99048 7.87953 1.97247 8.05753 1.95647C8.07051 1.95722 8.08354 1.95722 8.09653 1.95647C8.21753 1.93147 8.21753 1.93147 8.28453 2.03947C8.6368 2.60071 8.84305 3.24115 8.88452 3.90248C8.88452 3.92848 8.89253 3.95348 8.89653 3.97948L8.90352 4.33847Z"
        fill="#F7F7F7" />
      <path
        d="M1.7627 1.58833C2.32791 0.900542 3.10641 0.420955 3.97493 0.225516C4.84344 0.0300767 5.75234 0.129954 6.5577 0.509334C6.43828 0.540388 6.31235 0.535518 6.19569 0.495334C6.14805 0.484738 6.0987 0.484431 6.05093 0.494433C6.00317 0.504435 5.95808 0.524516 5.91869 0.553334C5.80368 0.634381 5.69892 0.729072 5.60669 0.835334C5.58016 0.8626 5.54462 0.879302 5.50669 0.882334C5.30669 0.905334 5.1067 0.930334 4.9067 0.940334C4.80587 0.939914 4.70534 0.929192 4.60669 0.908334C4.58967 0.902546 4.57109 0.903339 4.55462 0.910556C4.53815 0.917774 4.52498 0.930893 4.5177 0.947334C4.4757 1.02033 4.42469 1.08733 4.38369 1.16133C4.37316 1.18215 4.35673 1.19941 4.33646 1.21097C4.3162 1.22252 4.29298 1.22787 4.2697 1.22633C4.1097 1.23233 3.9487 1.25233 3.7897 1.24533C3.68044 1.2331 3.57302 1.20792 3.4697 1.17033C3.44217 1.15864 3.41211 1.15416 3.38236 1.15731C3.35262 1.16046 3.32417 1.17114 3.29969 1.18833C3.12892 1.30297 2.92928 1.36709 2.72369 1.37333C2.42581 1.40526 2.13237 1.46998 1.84869 1.56633L1.76669 1.58933M5.7067 0.452334C5.6207 0.402334 5.5467 0.358334 5.4707 0.317334C5.46174 0.313273 5.45203 0.311173 5.4422 0.311173C5.43237 0.311173 5.42265 0.313273 5.4137 0.317334C5.2087 0.431334 5.0037 0.547334 4.7907 0.667334C4.8807 0.739334 4.9557 0.799334 5.0687 0.773334C5.16178 0.768344 5.25385 0.751543 5.34269 0.723334C5.47036 0.641829 5.59201 0.551263 5.7067 0.452334ZM3.8327 0.561334L3.55569 0.776334C3.58583 0.790934 3.61491 0.807642 3.6427 0.826334C3.69144 0.869927 3.75184 0.898351 3.81649 0.90812C3.88115 0.91789 3.94725 0.90858 4.00669 0.881334C4.11969 0.839334 4.24069 0.816334 4.36269 0.781334C4.32569 0.717334 4.2927 0.664334 4.2627 0.608334C4.2417 0.567334 4.21869 0.556334 4.17569 0.576334C4.12337 0.608497 4.06258 0.624171 4.00123 0.621318C3.93988 0.618464 3.88081 0.597215 3.8317 0.560334"
        fill="#F7F7F7" />
    </g>
  </svg>
  <svg width="24" height="24" viewBox="0 0 24 24" fill="none" xmlns="http://www.w3.org/2000/svg" id="eye">
    <g clip-path="url(#clip0_1_31137)">
      <path
        d="M12 4C14.787 4 17.263 5.257 19.026 6.813C19.911 7.594 20.64 8.471 21.154 9.344C21.659 10.201 22 11.13 22 12C22 12.87 21.66 13.799 21.154 14.656C20.64 15.529 19.911 16.406 19.026 17.187C17.263 18.743 14.786 20 12 20C9.213 20 6.737 18.743 4.974 17.187C4.089 16.406 3.36 15.529 2.846 14.656C2.34 13.799 2 12.87 2 12C2 11.13 2.34 10.201 2.846 9.344C3.36 8.471 4.089 7.594 4.974 6.813C6.737 5.257 9.214 4 12 4ZM12 6C9.816 6 7.792 6.993 6.298 8.312C5.554 8.968 4.966 9.685 4.569 10.359C4.163 11.049 4 11.62 4 12C4 12.38 4.163 12.951 4.569 13.641C4.966 14.315 5.554 15.031 6.298 15.688C7.792 17.007 9.816 18 12 18C14.184 18 16.208 17.007 17.702 15.688C18.446 15.031 19.034 14.315 19.431 13.641C19.837 12.951 20 12.38 20 12C20 11.62 19.837 11.049 19.431 10.359C19.034 9.685 18.446 8.969 17.702 8.312C16.208 6.993 14.184 6 12 6ZM12 9C12.088 9 12.175 9.004 12.261 9.011C12.0439 9.39185 11.9579 9.8335 12.0163 10.268C12.0747 10.7025 12.2743 11.1057 12.5843 11.4157C12.8943 11.7257 13.2975 11.9253 13.732 11.9837C14.1665 12.0421 14.6081 11.9561 14.989 11.739C15.0416 12.3412 14.911 12.9452 14.6145 13.4719C14.3179 13.9986 13.8692 14.4234 13.327 14.6907C12.7849 14.958 12.1746 15.0553 11.5762 14.9699C10.9778 14.8844 10.4192 14.6202 9.97357 14.2118C9.52792 13.8034 9.21603 13.27 9.07876 12.6813C8.94149 12.0926 8.98524 11.4762 9.20429 10.9128C9.42334 10.3495 9.80746 9.8654 10.3063 9.52407C10.8052 9.18274 11.3955 9.00008 12 9Z"
        fill="#C9C9CC" />
    </g>
    <defs>
      <clipPath id="clip0_1_31137">
        <rect width="24" height="24" fill="white" />
      </clipPath>
    </defs>
  </svg>
  <svg width="19" height="19" viewBox="0 0 19 19" fill="none" xmlns="http://www.w3.org/2000/svg" id="logo-mini">
    <path
      d="M19 9.50004C19 14.7461 14.7485 19 9.50245 19H0.00244141L3.16831 16.5771C1.61773 15.1895 0.524897 13.2986 0.148636 11.1633C2.59314 10.8277 4.96334 10.4491 7.24727 10.0321C7.04117 9.95539 6.83027 9.86672 6.62176 9.76606C5.62958 9.28675 5.30126 8.29697 5.54811 7.12744C6.21196 4.56311 8.61331 3.85852 10.8757 3.85852C13.138 3.85852 15.2374 4.65178 14.5041 7.26405H11.506C11.6066 6.84225 11.5395 6.5283 11.319 6.30302C11.1105 6.07774 10.7439 5.95792 10.2334 5.95792C9.54558 5.95792 8.85058 6.40847 8.73554 6.9477C8.57018 7.74336 9.47368 7.9974 10.2238 8.20829C10.9907 8.4144 11.9326 8.56778 12.6875 8.92966C14.8084 8.45754 16.8383 7.94707 18.7676 7.40305C18.9186 8.07648 19 8.77868 19 9.49765V9.50004Z"
      fill="#004C98" />
    <path
      d="M11.5083 7.26405C11.609 6.84225 11.5419 6.5283 11.3214 6.30302C11.1129 6.07774 10.7462 5.95792 10.2357 5.95792C9.54793 5.95792 8.85293 6.40847 8.73789 6.9477C8.57253 7.74336 9.47603 7.9974 10.2262 8.20829C10.9931 8.4144 11.9349 8.56778 12.6898 8.92966C13.6245 9.38022 14.2668 10.1591 13.9241 11.7768C13.44 14.0559 10.9595 15.1368 8.45509 15.1368C5.95068 15.1368 3.87046 14.3986 4.45043 11.4604H7.44854C7.21847 12.479 7.84876 13.035 8.92962 13.035C9.62222 13.035 10.5809 12.6755 10.7342 11.9565C11.017 10.6312 9.18125 10.7582 7.24962 10.0321C7.04351 9.95539 6.83262 9.86672 6.62412 9.76606C5.63194 9.28675 5.3036 8.29697 5.55045 7.12744C6.2143 4.56311 8.61567 3.85852 10.878 3.85852C13.1404 3.85852 15.2398 4.65178 14.5064 7.26405H11.5083Z"
      fill="white" />
    <path
      d="M18.7651 7.403C16.8359 7.94702 14.806 8.45749 12.685 8.92962C11.9325 8.56534 10.9883 8.41435 10.2214 8.20825C9.47125 7.99735 8.56773 7.74331 8.7331 6.94765C8.84813 6.40843 9.54314 5.95787 10.231 5.95787C10.7414 5.95787 11.1057 6.0777 11.3166 6.30298C11.5395 6.52825 11.6042 6.8422 11.5035 7.264H14.5016C15.235 4.65414 13.1092 3.85848 10.8732 3.85848C8.63724 3.85848 6.20951 4.56307 5.54566 7.1274C5.29882 8.29692 5.62475 9.28671 6.61933 9.76602C6.82544 9.86668 7.03633 9.95535 7.24483 10.032C4.9609 10.449 2.59069 10.8253 0.146195 11.1632C0.0503318 10.624 0 10.068 0 9.5C0 4.25391 4.25391 0 9.5 0C14.0247 0 17.8113 3.16587 18.7651 7.403Z"
      fill="#066390" />
  </svg>
  <svg width="20" height="20" viewBox="0 0 20 20" fill="none" xmlns="http://www.w3.org/2000/svg" id="back-arrow">
    <g clip-path="url(#clip0_111_14)">
      <mask id="mask0_111_14" style="mask-type:luminance" maskUnits="userSpaceOnUse" x="0" y="0" width="20" height="20">
        <path
          d="M10 18.3333C14.6025 18.3333 18.3334 14.6025 18.3334 9.99996C18.3334 5.39746 14.6025 1.66663 10 1.66663C5.39752 1.66663 1.66669 5.39746 1.66669 9.99996C1.66669 14.6025 5.39752 18.3333 10 18.3333Z"
          fill="white" stroke="white" stroke-width="1.66667" stroke-linejoin="round" />
        <path d="M11.25 13.75L7.5 10L11.25 6.25" stroke="black" stroke-width="1.66667" stroke-linecap="round" stroke-linejoin="round" />
      </mask>
      <g mask="url(#mask0_111_14)">
        <path d="M0 0H20V20H0V0Z" fill="#d350f2" />
      </g>
    </g>
    <defs>
      <clipPath id="clip0_111_14">
        <rect width="20" height="20" fill="white" />
      </clipPath>
    </defs>
  </svg>
  <svg width="24" height="24" viewBox="0 0 24 24" fill="none" xmlns="http://www.w3.org/2000/svg" id="parameters">
    <path fill-rule="evenodd" clip-rule="evenodd"
      d="M9 3C7.34315 3 6 4.34315 6 6C6 7.65685 7.34315 9 9 9C10.6569 9 12 7.65685 12 6C12 4.34315 10.6569 3 9 3ZM4.10002 5C4.56329 2.71776 6.58104 1 9 1C11.419 1 13.4367 2.71776 13.9 5H22C22.5523 5 23 5.44772 23 6C23 6.55228 22.5523 7 22 7H13.9C13.4367 9.28224 11.419 11 9 11C6.58104 11 4.56329 9.28224 4.10002 7H2C1.44772 7 1 6.55228 1 6C1 5.44772 1.44772 5 2 5H4.10002ZM18 15C16.3431 15 15 16.3431 15 18C15 19.6569 16.3431 21 18 21C19.6569 21 21 19.6569 21 18C21 16.3431 19.6569 15 18 15ZM13.1 17C13.5633 14.7178 15.581 13 18 13C20.7614 13 23 15.2386 23 18C23 20.7614 20.7614 23 18 23C15.581 23 13.5633 21.2822 13.1 19H2C1.44772 19 1 18.5523 1 18C1 17.4477 1.44772 17 2 17H13.1Z"
      fill="currentColor"></path>
  </svg>
  <svg width="26" height="26" viewBox="0 0 26 26" fill="none" xmlns="http://www.w3.org/2000/svg" id="application">
    <path
      d="M16.5 8.625C16.5 10.7136 15.6703 12.7166 14.1935 14.1935C12.7166 15.6703 10.7136 16.5 8.625 16.5C6.53642 16.5 4.53338 15.6703 3.05653 14.1935C1.57968 12.7166 0.75 10.7136 0.75 8.625C0.75 6.53642 1.57968 4.53338 3.05653 3.05653C4.53338 1.57968 6.53642 0.75 8.625 0.75C10.7136 0.75 12.7166 1.57968 14.1935 3.05653C15.6703 4.53338 16.5 6.53642 16.5 8.625ZM9.5 5.125C9.5 4.89294 9.40781 4.67038 9.24372 4.50628C9.07962 4.34219 8.85706 4.25 8.625 4.25C8.39294 4.25 8.17038 4.34219 8.00628 4.50628C7.84219 4.67038 7.75 4.89294 7.75 5.125V7.75H5.125C4.89294 7.75 4.67038 7.84219 4.50628 8.00628C4.34219 8.17038 4.25 8.39294 4.25 8.625C4.25 8.85706 4.34219 9.07962 4.50628 9.24372C4.67038 9.40781 4.89294 9.5 5.125 9.5H7.75V12.125C7.75 12.3571 7.84219 12.5796 8.00628 12.7437C8.17038 12.9078 8.39294 13 8.625 13C8.85706 13 9.07962 12.9078 9.24372 12.7437C9.40781 12.5796 9.5 12.3571 9.5 12.125V9.5H12.125C12.3571 9.5 12.5796 9.40781 12.7437 9.24372C12.9078 9.07962 13 8.85706 13 8.625C13 8.39294 12.9078 8.17038 12.7437 8.00628C12.5796 7.84219 12.3571 7.75 12.125 7.75H9.5V5.125ZM20.875 6H17.8878C17.7165 5.3955 17.4862 4.80933 17.2 4.25H20.875C22.0353 4.25 23.1481 4.71094 23.9686 5.53141C24.7891 6.35188 25.25 7.46468 25.25 8.625V16.1255C25.2494 16.8215 24.9724 17.4887 24.48 17.9805L17.9805 24.4818C17.4884 24.9735 16.8212 25.2499 16.1255 25.25H8.625C7.46468 25.25 6.35188 24.7891 5.53141 23.9686C4.71094 23.1481 4.25 22.0353 4.25 20.875V17.2C4.80475 17.4835 5.38925 17.7145 6 17.8878V20.875C6 21.5712 6.27656 22.2389 6.76884 22.7312C7.26113 23.2234 7.92881 23.5 8.625 23.5H14.75V20C14.75 18.6076 15.3031 17.2723 16.2877 16.2877C17.2723 15.3031 18.6076 14.75 20 14.75H23.5V8.625C23.5 7.92881 23.2234 7.26113 22.7312 6.76884C22.2389 6.27656 21.5712 6 20.875 6ZM16.5 23.416C16.5909 23.3733 16.6738 23.3153 16.745 23.2445L23.2445 16.7432C23.3151 16.6726 23.3731 16.5903 23.416 16.5H20C19.0717 16.5 18.1815 16.8687 17.5251 17.5251C16.8687 18.1815 16.5 19.0717 16.5 20V23.416Z"
      fill="#D350F2" />
  </svg>
  <svg width="48" height="48" viewBox="0 0 48 48" fill="none" xmlns="http://www.w3.org/2000/svg" id="whatsapp">
    <path d="M24 48C37.2548 48 48 37.2548 48 24C48 10.7452 37.2548 0 24 0C10.7452 0 0 10.7452 0 24C0 37.2548 10.7452 48 24 48Z" fill="#25D366" />
    <path fill-rule="evenodd" clip-rule="evenodd"
      d="M24.7911 37.3525H24.7852C22.3967 37.3517 20.0498 36.7524 17.9653 35.6154L10.4 37.6L12.4246 30.2048C11.1757 28.0405 10.5186 25.5855 10.5196 23.0702C10.5228 15.2017 16.9248 8.79999 24.7909 8.79999C28.6086 8.80164 32.1918 10.2879 34.8862 12.9854C37.5806 15.6828 39.0636 19.2683 39.0621 23.0815C39.059 30.9483 32.6595 37.3493 24.7911 37.3525ZM18.3159 33.0319L18.749 33.2889C20.5702 34.3697 22.6578 34.9415 24.7863 34.9423H24.7911C31.3288 34.9423 36.6499 29.6211 36.6525 23.0807C36.6538 19.9112 35.4212 16.9311 33.1817 14.689C30.9422 12.4469 27.964 11.2115 24.7957 11.2104C18.2529 11.2104 12.9318 16.5311 12.9292 23.0711C12.9283 25.3124 13.5554 27.4951 14.7427 29.3836L15.0248 29.8324L13.8265 34.2095L18.3159 33.0319ZM31.4924 26.154C31.7411 26.2742 31.9091 26.3554 31.9808 26.4751C32.0699 26.6238 32.0699 27.3378 31.7729 28.1708C31.4756 29.0038 30.051 29.764 29.3659 29.8663C28.7516 29.9582 27.9741 29.9965 27.1199 29.725C26.602 29.5607 25.9379 29.3413 25.0871 28.9739C21.7442 27.5304 19.485 24.2904 19.058 23.678C19.0281 23.6351 19.0072 23.6051 18.9955 23.5895L18.9927 23.5857C18.804 23.3339 17.5395 21.6468 17.5395 19.9008C17.5395 18.2582 18.3463 17.3973 18.7177 17.001C18.7432 16.9739 18.7666 16.9489 18.7875 16.926C19.1144 16.569 19.5007 16.4797 19.7384 16.4797C19.9761 16.4797 20.2141 16.4819 20.4219 16.4924C20.4475 16.4937 20.4742 16.4935 20.5017 16.4933C20.7095 16.4921 20.9686 16.4906 21.2242 17.1045C21.3225 17.3407 21.4664 17.691 21.6181 18.0604C21.9249 18.8074 22.264 19.6328 22.3236 19.7522C22.4128 19.9307 22.4722 20.1389 22.3533 20.3769C22.3355 20.4126 22.319 20.4463 22.3032 20.4785C22.2139 20.6608 22.1483 20.7948 21.9967 20.9718C21.9372 21.0413 21.8756 21.1163 21.814 21.1913C21.6913 21.3407 21.5687 21.4901 21.4619 21.5965C21.2833 21.7743 21.0975 21.9672 21.3055 22.3242C21.5135 22.6812 22.2292 23.8489 23.2892 24.7945C24.4288 25.8109 25.4192 26.2405 25.9212 26.4582C26.0192 26.5008 26.0986 26.5352 26.1569 26.5644C26.5133 26.7429 26.7213 26.713 26.9294 26.4751C27.1374 26.2371 27.8208 25.4338 28.0584 25.0769C28.2961 24.7201 28.5339 24.7795 28.8607 24.8984C29.1877 25.0176 30.9408 25.8801 31.2974 26.0586C31.367 26.0934 31.4321 26.1249 31.4924 26.154Z"
      fill="#FDFDFD" />
  </svg>
  <svg xmlns="http://www.w3.org/2000/svg" height="24px" viewBox="0 -960 960 960" width="24px" fill="none" id="webhook">
    <path fill="currentColor"
      d="M280-120q-83 0-141.5-58.5T80-320q0-73 45.5-127.5T240-516v83q-35 12-57.5 43T160-320q0 50 35 85t85 35q50 0 85-35t35-85v-40h235q8-9 19.5-14.5T680-380q25 0 42.5 17.5T740-320q0 25-17.5 42.5T680-260q-14 0-25.5-5.5T635-280H476q-14 69-68.5 114.5T280-120Zm400 0q-56 0-101.5-27.5T507-220h107q14 10 31 15t35 5q50 0 85-35t35-85q0-50-35-85t-85-35q-20 0-37 5.5T611-418L489-621q-21-4-35-20t-14-39q0-25 17.5-42.5T500-740q25 0 42.5 17.5T560-680v8.5q0 3.5-2 8.5l87 146q8-2 17-2.5t18-.5q83 0 141.5 58.5T880-320q0 83-58.5 141.5T680-120ZM280-260q-25 0-42.5-17.5T220-320q0-22 14-38t34-21l94-156q-29-27-45.5-64.5T300-680q0-83 58.5-141.5T500-880q83 0 141.5 58.5T700-680h-80q0-50-35-85t-85-35q-50 0-85 35t-35 85q0 43 26 75.5t66 41.5L337-338q2 5 2.5 9t.5 9q0 25-17.5 42.5T280-260Z" />
  </svg>
  <svg width="20" height="19" viewBox="0 0 20 19" fill="none" xmlns="http://www.w3.org/2000/svg" id="pages">
    <path d="M15 5.75H20V18.25H5V13.25H0V0.75H15V5.75ZM18.75 7H15V8.25H18.75V7ZM13.75 2H1.25V3.25H13.75V2ZM1.25 4.5V12H13.75V4.5H1.25ZM6.25 17H18.75V9.5H15V13.25H6.25V17Z" fill="#D350F2" />
  </svg>
  <svg version="1.1" id="plans" xmlns="http://www.w3.org/2000/svg" xmlns:xlink="http://www.w3.org/1999/xlink" width="800px" height="800px" viewBox="0 0 32 32" xml:space="preserve">
    <style type="text/css">
      .linesandangles_een {
        fill: #D350F2;
      }
    </style>
    <path class="linesandangles_een" d="M5,2v28h22V2H5z M25,28H7V4h18V28z M15,6H9v6h6V6z M13,10h-2V8h2V10z M23,10h-7V8h7V10z M15,13
	H9v6h6V13z M13,17h-2v-2h2V17z M23,17h-7v-2h7V17z M15,20H9v6h6V20z M13,24h-2v-2h2V24z M23,24h-7v-2h7V24z" />
  </svg>
  <svg height="800px" width="800px" version="1.1" id="fullscreen" xmlns="http://www.w3.org/2000/svg" xmlns:xlink="http://www.w3.org/1999/xlink" viewBox="0 0 512 512" xml:space="preserve">
    <style type="text/css">
      .st0 {
        fill: currentColor;
      }
    </style>
    <g>
      <polygon class="st0" points="30.291,174.821 30.291,51.704 164.736,186.154 186.151,164.735 51.706,30.294 174.819,30.294 
		174.819,0 0.002,0 0.005,174.821 	" />
      <polygon class="st0" points="337.177,0 337.177,30.294 460.294,30.294 325.848,164.743 347.263,186.154 481.713,51.704 
		481.713,174.821 511.998,174.821 511.998,0 	" />
      <polygon class="st0" points="164.736,325.847 30.291,460.288 30.291,337.17 0.005,337.179 0.002,512 174.819,512 174.819,481.706 
		51.706,481.706 186.155,347.266 	" />
      <polygon class="st0" points="481.713,460.288 347.263,325.839 325.844,347.266 460.294,481.706 337.177,481.706 337.177,512 
		511.998,512 511.998,337.179 481.705,337.187 	" />
    </g>
  </svg>
  <svg width="800px" id="error" height="800px" viewBox="0 0 24 24" fill="none" xmlns="http://www.w3.org/2000/svg">
    <g id="style=stroke">
      <g id="error-box">
        <path id="vector (Stroke)" fill-rule="evenodd" clip-rule="evenodd"
          d="M1.25 8C1.25 4.27208 4.27208 1.25 8 1.25H16C19.7279 1.25 22.75 4.27208 22.75 8V16C22.75 19.7279 19.7279 22.75 16 22.75H8C4.27208 22.75 1.25 19.7279 1.25 16V8ZM8 2.75C5.10051 2.75 2.75 5.10051 2.75 8V16C2.75 18.8995 5.10051 21.25 8 21.25H16C18.8995 21.25 21.25 18.8995 21.25 16V8C21.25 5.10051 18.8995 2.75 16 2.75H8Z"
          fill="red" />
        <path id="vector (Stroke)_2" fill-rule="evenodd" clip-rule="evenodd"
          d="M8.46967 8.46967C8.76257 8.17678 9.23744 8.17678 9.53033 8.46967L15.5303 14.4697C15.8232 14.7626 15.8232 15.2374 15.5303 15.5303C15.2374 15.8232 14.7625 15.8232 14.4696 15.5303L8.46967 9.53033C8.17678 9.23743 8.17678 8.76256 8.46967 8.46967Z"
          fill="red" />
        <path id="vector (Stroke)_3" fill-rule="evenodd" clip-rule="evenodd"
          d="M15.5303 8.46967C15.8232 8.76257 15.8232 9.23744 15.5303 9.53033L9.53033 15.5303C9.23743 15.8232 8.76256 15.8232 8.46967 15.5303C8.17678 15.2374 8.17678 14.7625 8.46967 14.4696L14.4697 8.46967C14.7626 8.17678 15.2374 8.17678 15.5303 8.46967Z"
          fill="red" />
      </g>
    </g>
  </svg>
  <svg id="success" width="800px" height="800px" viewBox="0 0 24 24" fill="none" xmlns="http://www.w3.org/2000/svg">
    <g id="style=stroke">
      <g id="check-box">
        <path id="vector (Stroke)" fill-rule="evenodd" clip-rule="evenodd"
          d="M16.5303 8.96967C16.8232 9.26256 16.8232 9.73744 16.5303 10.0303L11.9041 14.6566C11.2207 15.34 10.1126 15.34 9.42923 14.6566L7.46967 12.697C7.17678 12.4041 7.17678 11.9292 7.46967 11.6363C7.76256 11.3434 8.23744 11.3434 8.53033 11.6363L10.4899 13.5959C10.5875 13.6935 10.7458 13.6935 10.8434 13.5959L15.4697 8.96967C15.7626 8.67678 16.2374 8.67678 16.5303 8.96967Z"
          fill="green" />
        <path id="vector (Stroke)_2" fill-rule="evenodd" clip-rule="evenodd"
          d="M1.25 8C1.25 4.27208 4.27208 1.25 8 1.25H16C19.7279 1.25 22.75 4.27208 22.75 8V16C22.75 19.7279 19.7279 22.75 16 22.75H8C4.27208 22.75 1.25 19.7279 1.25 16V8ZM8 2.75C5.10051 2.75 2.75 5.10051 2.75 8V16C2.75 18.8995 5.10051 21.25 8 21.25H16C18.8995 21.25 21.25 18.8995 21.25 16V8C21.25 5.10051 18.8995 2.75 16 2.75H8Z"
          fill="green" />
      </g>
    </g>
  </svg>
  <svg id="payments" width="800px" height="800px" viewBox="0 0 48 48" xmlns="http://www.w3.org/2000/svg">

    <path d="M0 0h48v48H0z" fill="none" />
    <g id="Shopicon">
      <path d="M40.228,21.494L30,11.267V8c0-2.2-1.8-4-4-4H10C7.8,4,6,5.8,6,8v23.955c0,2.2,1.8,4,4,4h3.992l0.121,0.799
		c0.621,4.105,4.012,7.201,7.888,7.201h20v-17C42,23.483,40.656,21.907,40.228,21.494z M26,9.185c-0.198-0.019-0.398-0.03-0.6-0.03
		c-1.605,0-3.112,0.623-4.24,1.751c-1.132,1.125-1.758,2.629-1.76,4.234c-0.003,1.611,0.621,3.123,1.756,4.259L26,24.243v7.712h-7V8
		h7V9.185z M10,8h3v23.955h-3V8z M38,39.955H22c-1.915,0-3.605-1.633-3.933-3.799l-0.03-0.201H26c2.2,0,4-1.8,4-4v-3.712l2.12,2.12
		l2.829-2.828l-4.663-4.663L25,17.587l-1.016-1.016c-0.378-0.378-0.585-0.884-0.584-1.424c0.001-0.534,0.207-1.033,0.584-1.408
		c0.423-0.423,1.024-0.6,1.604-0.548c0.455,0.04,0.897,0.217,1.228,0.548L31,17.923l6.416,6.416l-0.072-0.022l0.109,0.072
		C37.584,24.586,38,25.337,38,26.955V39.955z" />
    </g>
  </svg>
  <svg fill="currentColor" height="800px" width="800px" version="1.1" id="domains" xmlns="http://www.w3.org/2000/svg" xmlns:xlink="http://www.w3.org/1999/xlink" viewBox="0 0 512 512"
    xml:space="preserve">
    <g>
      <g>
        <g>
          <path d="M472.178,34.62H39.822C17.864,34.62,0,52.484,0,74.442c0,17.955,0,345.234,0,363.116
				c0,21.958,17.864,39.822,39.822,39.822h432.356c21.958,0,39.822-17.864,39.822-39.822c0-17.89,0-345.167,0-363.116
				C512,52.484,494.136,34.62,472.178,34.62z M477.867,437.557c0,3.137-2.552,5.689-5.689,5.689H39.822
				c-3.137,0-5.689-2.552-5.689-5.689V153.838h443.733V437.557z M477.867,119.705H34.133V74.442c0-3.137,2.552-5.689,5.689-5.689
				h432.356c3.137,0,5.689,2.552,5.689,5.689V119.705z" />
          <circle cx="71.805" cy="94.23" r="12.836" />
          <circle cx="112.959" cy="94.23" r="12.836" />
          <circle cx="154.112" cy="94.23" r="12.836" />
          <path d="M81.581,334.442c4.44,13.701,22.872,16.101,30.636,3.9l10.454-16.432l10.454,16.432
				c7.744,12.169,26.195,9.801,30.636-3.9l19.857-61.278c2.906-8.967-2.008-18.591-10.975-21.497
				c-8.971-2.906-18.591,2.009-21.497,10.975l-8.681,26.791l-5.393-8.478c-6.695-10.52-22.094-10.538-28.801,0l-5.392,8.478
				l-8.681-26.79c-2.906-8.966-12.526-13.882-21.497-10.975c-8.967,2.906-13.88,12.529-10.975,21.496L81.581,334.442z" />
          <path d="M214.911,334.442c4.446,13.72,22.905,16.052,30.636,3.9L256,321.911l10.454,16.432c7.762,12.2,26.196,9.8,30.636-3.9
				l19.855-61.278c2.906-8.967-2.008-18.59-10.975-21.496c-8.974-2.907-18.591,2.008-21.497,10.975l-8.681,26.79l-5.392-8.478
				c-6.695-10.52-22.094-10.538-28.801,0l-5.392,8.478l-8.681-26.79c-2.905-8.966-12.527-13.882-21.496-10.975
				c-8.967,2.906-13.88,12.529-10.975,21.496L214.911,334.442z" />
          <path d="M348.241,334.442c4.446,13.72,22.905,16.051,30.636,3.9l10.454-16.432l10.454,16.432c7.762,12.2,26.195,9.8,30.636-3.9
				l19.855-61.278c2.906-8.967-2.008-18.59-10.975-21.496c-8.973-2.907-18.591,2.008-21.496,10.975l-8.681,26.79l-5.392-8.478
				c-6.695-10.52-22.095-10.538-28.801,0l-5.393,8.478l-8.681-26.791c-2.906-8.966-12.531-13.881-21.497-10.975
				c-8.967,2.906-13.88,12.53-10.974,21.497L348.241,334.442z" />
        </g>
      </g>
    </g>
  </svg>
</svg>